<svg width="17" height="15" viewBox="0 0 17 15" fill="none" xmlns="http://www.w3.org/2000/svg">
<path d="M12.8431 6.92108C13.1762 7.16287 13.6502 7.08652 13.8936 6.75565C14.137 6.42478 14.0601 5.95392 13.727 5.71213L11.229 3.90507C11.5108 3.1797 11.4852 2.3398 11.1137 1.58898C10.3963 0.189145 8.65412 -0.383515 7.24497 0.329129C6.59164 0.659999 6.0536 1.24538 5.81021 1.99621C5.66929 2.41616 5.64367 2.83611 5.69491 3.24333L7.75739 1.75442C8.10327 1.4999 8.57725 1.43627 8.98719 1.56353C9.34588 1.67806 9.62771 1.93258 9.79424 2.25072C9.94797 2.55614 9.99921 2.93791 9.8711 3.29424C9.78143 3.5742 9.6149 3.80327 9.39712 3.95598C8.70536 4.45228 8.0136 4.96131 7.32184 5.45762C7.43713 5.50852 7.55242 5.55942 7.66772 5.5976C8.6285 5.90302 9.62771 5.69941 10.3707 5.1013L12.8687 6.90836L12.8431 6.92108Z" fill="#7169B0"/>
<path d="M10.755 11.6297C10.6269 12.0242 10.8447 12.4441 11.2418 12.5714C11.6261 12.6986 12.0617 12.4823 12.1898 12.0878L13.1506 9.17359C13.932 9.21177 14.7391 8.9318 15.3283 8.34642C16.4429 7.22655 16.4429 5.40676 15.3283 4.29962C14.8031 3.77786 14.0857 3.45972 13.2915 3.45972C12.8431 3.45972 12.4332 3.56152 12.0617 3.73968L14.1114 5.2286C14.4572 5.48311 14.675 5.90307 14.675 6.33574C14.675 6.71752 14.5213 7.06111 14.2651 7.3029C14.0217 7.54469 13.6758 7.6974 13.2915 7.6974C12.9969 7.6974 12.7278 7.60832 12.5101 7.45561C11.8183 6.94658 11.1265 6.463 10.4348 5.95397C10.422 6.0685 10.4091 6.19576 10.4091 6.32302C10.4091 7.32835 10.9088 8.19371 11.7158 8.71546L10.7678 11.6297H10.755Z" fill="#7169B0"/>
<path d="M4.49074 6.08138C4.36263 5.68688 3.93989 5.48327 3.54276 5.61052C3.14564 5.73778 2.94068 6.15773 3.06878 6.55223L4.02956 9.46644C4.02956 9.46644 3.93989 9.51734 3.90145 9.55552C3.26093 10.0136 2.86381 10.7008 2.74852 11.4262C2.44107 12.9533 3.64525 14.4677 5.14407 14.6967C6.37386 14.824 7.51399 14.3531 8.12889 13.246H5.73334C5.61805 13.246 5.50276 13.246 5.38746 13.2333C5.04158 13.1824 4.70851 12.9915 4.49074 12.6861C4.26015 12.3806 4.18328 12.0116 4.24734 11.668C4.29858 11.3244 4.49073 10.9935 4.79818 10.7772C5.02877 10.6118 5.3106 10.5227 5.57962 10.51C6.43792 10.51 7.29621 10.51 8.1417 10.51C7.61647 9.55552 6.5404 8.9574 5.46433 9.02103L4.50355 6.10683L4.49074 6.08138Z" fill="#7169B0"/>
<path d="M8.97438 3.48524C9.30745 3.24345 9.38431 2.7726 9.14091 2.44173C8.89751 2.11086 8.42353 2.0345 8.09046 2.27629L5.59243 4.08335C5.59243 4.08335 5.51557 4.01973 5.47714 3.99427C4.83662 3.53615 4.06799 3.37071 3.3378 3.48524C1.77493 3.6634 0.698858 5.26685 0.942256 6.75577C1.19846 7.95199 2.00552 8.8937 3.24813 9.12276L2.50512 6.85757C2.46669 6.74304 2.42826 6.64123 2.41545 6.5267C2.36421 6.18311 2.44107 5.81406 2.65885 5.50864C2.88944 5.20322 3.2097 5.01234 3.55558 4.96143C3.90146 4.91053 4.27296 4.98688 4.58041 5.20322C4.811 5.36866 4.97753 5.59772 5.0672 5.85224C5.32341 6.66669 5.59243 7.46841 5.86145 8.27014C6.61727 7.48114 6.84785 6.28491 6.46354 5.27958L8.96157 3.47252L8.97438 3.48524Z" fill="#7169B0"/>
<path d="M5.59243 11.108C5.1825 11.108 4.84943 11.4389 4.84943 11.8588C4.84943 12.266 5.1825 12.5969 5.60524 12.5969H8.69255C8.69255 12.5969 8.71817 12.686 8.73098 12.7369C8.97438 13.4877 9.51242 14.0731 10.1657 14.404C11.5365 15.1675 13.3555 14.5058 14.0345 13.1568C14.5341 12.037 14.4444 10.8153 13.5605 9.88632L12.8175 12.1515C12.7791 12.266 12.7534 12.3678 12.6894 12.4697C12.5229 12.7751 12.241 13.0296 11.8823 13.1441C11.5236 13.2586 11.1393 13.2205 10.8319 13.0678C10.5244 12.9023 10.2682 12.6351 10.1401 12.266C10.0505 11.9861 10.0505 11.7061 10.1401 11.4516C10.4091 10.6499 10.6654 9.83542 10.9344 9.03369C9.85829 9.2373 8.94876 10.0645 8.67974 11.0953H5.59243V11.108Z" fill="#7169B0"/>
</svg>
