<svg width="140" height="126" viewBox="0 0 140 126" fill="none" xmlns="http://www.w3.org/2000/svg">
<path d="M10.5538 32.3034H12.3749C13.2992 32.3034 14.0028 31.9586 14.4856 31.2552C14.9685 30.5517 15.203 29.5172 15.203 28.1379V5.32414C15.203 3.88965 15.0099 2.84138 14.6236 2.17931C14.2373 1.53103 13.6027 1.2 12.706 1.2H10.7884V0H17.8794L32.1167 25.4069H32.3512L46.6851 0H53.7348V1.2H51.7757C50.879 1.2 50.2444 1.53103 49.8581 2.17931C49.4718 2.84138 49.2787 3.87586 49.2787 5.32414V28.2345C49.2787 29.669 49.4718 30.7172 49.8581 31.3793C50.2444 32.0276 50.879 32.3586 51.7757 32.3586H53.7348V33.5586H41.8014V32.3586H43.9535C44.9468 32.3586 45.6504 32.0276 46.0643 31.3793C46.4782 30.731 46.6851 29.6828 46.6851 28.2345V3.35173H46.4506L32.2547 28.469H31.013L16.8723 3.35173H16.6378V28.0828C16.6378 29.4897 16.9827 30.5379 17.6725 31.2414C18.3623 31.9448 19.3418 32.2897 20.6248 32.2897H23.1218V33.531H10.5538V32.2897V32.3034Z" fill="#7169B0"/>
<path d="M58.177 32.3999C56.8802 31.3103 56.2318 29.862 56.2318 28.0413C56.2318 26.3172 56.8802 24.9241 58.177 23.8758C59.4738 22.8275 61.5431 21.9861 64.3851 21.3792L73.7386 19.3655V20.7999L64.8679 22.6758C62.633 23.1586 61.0327 23.7792 60.067 24.5655C59.1013 25.3517 58.6322 26.4275 58.6322 27.8068C58.6322 29.1861 59.1013 30.2482 60.0532 31.0206C60.9913 31.793 62.3571 32.1655 64.1506 32.1655C65.8061 32.1655 67.296 31.8344 68.6066 31.1861C69.9172 30.5379 70.9243 29.5861 71.6279 28.3586C72.3315 27.131 72.6764 25.7241 72.6764 24.1655V17.6413C72.6764 15.3103 72.0969 13.531 70.9243 12.2896C69.7517 11.062 68.0272 10.4413 65.7233 10.4413C64.1643 10.4413 62.9503 10.7172 62.1088 11.2827C61.2672 11.8482 60.8396 12.662 60.8396 13.7517C60.8396 14.331 60.9637 14.8275 61.2258 15.2551C61.488 15.6827 61.9018 16.0275 62.4675 16.2896C62.3019 16.8689 61.9846 17.3379 61.5156 17.7241C61.0327 18.1103 60.4947 18.3034 59.8876 18.3034C59.1151 18.3034 58.4943 18.0275 58.0114 17.4896C57.5286 16.9517 57.294 16.2482 57.294 15.3792C57.294 14.1655 57.7217 13.0758 58.5908 12.0965C59.4462 11.1172 60.6326 10.3586 62.1364 9.79304C63.6401 9.22752 65.2818 8.95166 67.0753 8.95166C69.6275 8.95166 71.6003 9.6827 72.9937 11.131C74.3871 12.5792 75.0768 14.6344 75.0768 17.2965V28.4689C75.0768 29.5172 75.1458 30.3172 75.27 30.8689C75.3941 31.4068 75.6011 31.8068 75.8632 32.0413C76.1391 32.2758 76.5392 32.3999 77.091 32.3999H78.6776V33.5448H73.2558L72.7316 29.1861H72.497C71.5313 30.7172 70.2621 31.9034 68.6894 32.7586C67.1029 33.5999 65.3508 34.0275 63.4332 34.0275C61.2258 34.0275 59.4738 33.4896 58.177 32.3999Z" fill="#7169B0"/>
<path d="M79.4363 32.3999H80.9677C81.5057 32.3999 81.9334 32.2758 82.2093 32.0413C82.499 31.8068 82.6922 31.4068 82.8025 30.8689C82.9129 30.331 82.9681 29.531 82.9681 28.4689V13.2689C82.9681 12.3448 82.7611 11.7103 82.3749 11.3792C81.9748 11.0482 81.2022 10.8689 80.0434 10.8689H78.9397V9.76545L84.596 8.95166H85.272V13.5586H85.5065C86.5964 11.9999 87.8104 10.8413 89.1486 10.0827C90.4868 9.33787 91.9767 8.95166 93.6047 8.95166C96.0051 8.95166 97.8814 9.73787 99.2333 11.3241C100.585 12.9103 101.275 15.0896 101.275 17.862V28.4551C101.275 29.5034 101.344 30.3034 101.468 30.8551C101.592 31.393 101.799 31.793 102.061 32.0275C102.337 32.262 102.737 32.3861 103.289 32.3861H104.876V33.531H95.3291V32.3861H96.8605C97.3985 32.3861 97.8262 32.262 98.1021 32.0275C98.3918 31.793 98.5849 31.393 98.6953 30.8551C98.8057 30.3172 98.8609 29.5172 98.8609 28.4551V18.193C98.8609 15.931 98.309 14.1517 97.2054 12.8689C96.1017 11.5861 94.5566 10.9517 92.5838 10.9517C90.404 10.9517 88.6657 11.6827 87.3276 13.1586C86.0032 14.6344 85.341 16.5792 85.341 19.0068V28.4551C85.341 29.5034 85.4099 30.3034 85.5341 30.8551C85.6583 31.393 85.8652 31.793 86.1273 32.0275C86.3894 32.262 86.8033 32.3861 87.3551 32.3861H88.8865V33.531H79.395V32.3861L79.4363 32.3999Z" fill="#7169B0"/>
<path d="M108.38 42.6067C107.759 42.0964 107.442 41.4343 107.442 40.6481C107.442 39.9723 107.676 39.4067 108.132 38.9516C108.587 38.4826 109.208 38.2067 109.98 38.1102C110.325 38.7447 110.739 39.255 111.208 39.6136C111.677 39.9861 112.146 40.1654 112.629 40.1654C113.209 40.1654 113.719 39.9033 114.16 39.393C114.602 38.8826 115.057 38.0826 115.499 36.993L117.568 31.8619L116.989 34.6481L107.442 14.2205C106.835 12.9102 106.311 11.9999 105.883 11.4895C105.455 10.9792 105.014 10.7171 104.559 10.7171H103.745V9.57227H114.147V10.7171H111.705C110.656 10.7171 110.022 11.1171 109.829 11.9447C109.635 12.7723 109.884 13.9033 110.546 15.3654L117.692 30.855H117.927L124.011 15.4205C124.618 13.8895 124.797 12.7171 124.535 11.9171C124.273 11.1171 123.597 10.7171 122.479 10.7171H119.789V9.57227H129.184V10.7171H128.508C128.094 10.7171 127.667 11.0067 127.239 11.5723C126.811 12.1378 126.328 13.0619 125.818 14.3033L116.809 37.0757C115.94 39.2826 115.03 40.8826 114.05 41.8757C113.071 42.8688 111.953 43.3654 110.67 43.3654C109.746 43.3654 108.973 43.1033 108.339 42.593L108.38 42.6067Z" fill="#7169B0"/>
<path d="M14.7477 114.138H16.6654C17.5621 114.138 18.1967 113.807 18.583 113.159C18.9693 112.51 19.1624 111.462 19.1624 110.014V87.1034C19.1624 85.669 18.9693 84.6207 18.583 83.9586C18.1967 83.3103 17.5621 82.9793 16.6654 82.9793H14.7477V81.7793H29.5093C33.5101 81.7793 36.959 82.4552 39.8837 83.7931C42.8084 85.131 45.0572 87.0758 46.6161 89.6C48.175 92.1241 48.9614 95.1172 48.9614 98.5655C48.9614 102.014 48.2164 105.007 46.7265 107.531C45.2365 110.055 43.0982 111.986 40.2976 113.338C37.4971 114.676 34.1723 115.352 30.2956 115.352H14.7202V114.152L14.7477 114.138ZM41.9669 110.11C44.6709 107.586 46.0229 103.917 46.0229 99.0896C46.0229 95.7379 45.3331 92.869 43.9673 90.5103C42.6015 88.1517 40.5735 86.3448 37.9247 85.0896C35.2759 83.8483 32.0753 83.2138 28.3366 83.2138C26.6122 83.2138 24.4186 83.2965 21.7698 83.4483V113.503C24.1013 113.766 26.8881 113.89 30.1163 113.89C35.3311 113.89 39.2767 112.621 41.9807 110.097L41.9669 110.11Z" fill="#7169B0"/>
<path d="M54.328 114.179C53.0312 113.09 52.3828 111.641 52.3828 109.821C52.3828 108.096 53.0312 106.703 54.328 105.655C55.6248 104.607 57.6941 103.765 60.5361 103.159L69.8896 101.145V102.579L61.0189 104.455C58.784 104.938 57.1837 105.559 56.218 106.345C55.2523 107.131 54.7832 108.207 54.7832 109.586C54.7832 110.965 55.2523 112.028 56.2042 112.8C57.1423 113.572 58.5081 113.945 60.3015 113.945C61.957 113.945 63.447 113.614 64.7576 112.965C66.0682 112.317 67.0753 111.365 67.7789 110.138C68.4825 108.91 68.8274 107.503 68.8274 105.945V99.4206C68.8274 97.0896 68.2479 95.3103 67.0753 94.0689C65.9027 92.8413 64.1782 92.2206 61.8743 92.2206C60.3153 92.2206 59.1013 92.4965 58.2598 93.062C57.4182 93.6275 56.9906 94.4413 56.9906 95.531C56.9906 96.1103 57.1147 96.6068 57.3768 97.0344C57.639 97.462 58.0528 97.8068 58.6185 98.0689C58.4529 98.6482 58.1356 99.1172 57.6665 99.5034C57.1837 99.8896 56.6457 100.083 56.0386 100.083C55.2661 100.083 54.6453 99.8068 54.1624 99.2689C53.6796 98.731 53.445 98.0275 53.445 97.1585C53.445 95.9448 53.8727 94.8551 54.7418 93.8758C55.5972 92.8965 56.7836 92.1379 58.2874 91.5723C59.7911 91.0068 61.4328 90.731 63.2263 90.731C65.7785 90.731 67.7513 91.462 69.1447 92.9103C70.538 94.3585 71.2278 96.4137 71.2278 99.0758V110.248C71.2278 111.296 71.2968 112.096 71.421 112.648C71.5451 113.186 71.7521 113.586 72.0142 113.821C72.2901 114.055 72.6902 114.179 73.242 114.179H74.8286V115.324H69.4068L68.8826 110.965H68.648C67.6823 112.496 66.4131 113.683 64.8404 114.538C63.2539 115.379 61.5018 115.807 59.5842 115.807C57.3768 115.807 55.6248 115.269 54.328 114.179Z" fill="#7169B0"/>
<path d="M78.3051 124.386C77.6843 123.876 77.367 123.214 77.367 122.427C77.367 121.752 77.6015 121.186 78.0567 120.731C78.512 120.262 79.1328 119.986 79.9054 119.889C80.2503 120.524 80.6642 121.034 81.1332 121.393C81.6023 121.765 82.0713 121.945 82.5542 121.945C83.1336 121.945 83.6441 121.683 84.0855 121.172C84.527 120.662 84.9822 119.862 85.4237 118.772L87.4931 113.641L86.9137 116.427L77.367 95.9998C76.7599 94.6895 76.2357 93.7791 75.808 93.2688C75.3804 92.7585 74.9389 92.4964 74.4836 92.4964H73.6697V91.3516H84.0717V92.4964H81.6299C80.5814 92.4964 79.9468 92.8964 79.7536 93.724C79.5605 94.5516 79.8088 95.6826 80.471 97.1447L87.6172 112.634H87.8518L93.9357 97.1998C94.5427 95.6688 94.7221 94.4964 94.46 93.6964C94.1979 92.8964 93.5219 92.4964 92.4044 92.4964H89.7142V91.3516H99.1092V92.4964H98.4332C98.0193 92.4964 97.5916 92.786 97.164 93.3516C96.7363 93.9171 96.2534 94.8412 95.743 96.0826L86.7343 118.855C85.8652 121.062 84.9547 122.662 83.9752 123.655C82.9956 124.648 81.8782 125.145 80.5952 125.145C79.6709 125.145 78.8983 124.883 78.2637 124.372L78.3051 124.386Z" fill="#7169B0"/>
<path d="M106.711 115.697C105.786 115.518 104.793 115.255 103.731 114.911C103.413 114.814 103.096 114.731 102.793 114.649C102.489 114.566 102.227 114.524 102.006 114.524C101.786 114.524 101.606 114.58 101.482 114.662C101.358 114.759 101.289 114.952 101.289 115.242H100.282L100.047 106.566H101.054C101.054 108.124 101.427 109.518 102.158 110.731C102.889 111.945 103.938 112.883 105.304 113.531C106.656 114.193 108.256 114.511 110.077 114.511C112.119 114.511 113.719 114.069 114.878 113.173C116.037 112.276 116.602 111.049 116.602 109.476C116.602 108.428 116.354 107.545 115.857 106.842C115.361 106.138 114.588 105.545 113.526 105.062C112.464 104.58 111.098 104.207 109.401 103.918C107.359 103.573 105.69 103.104 104.393 102.524C103.096 101.945 102.144 101.228 101.537 100.345C100.93 99.4624 100.627 98.4003 100.627 97.1589C100.627 95.1451 101.372 93.5727 102.875 92.4417C104.379 91.3106 106.449 90.7451 109.111 90.7451C110.229 90.7451 111.222 90.8417 112.091 91.0348C112.946 91.2279 113.816 91.4624 114.685 91.752C115.361 91.9727 115.802 92.083 116.023 92.083C116.244 92.083 116.423 92.0417 116.547 91.9451C116.671 91.8486 116.74 91.6693 116.74 91.421H117.692L117.885 99.1451H116.837C116.837 97.7382 116.506 96.5106 115.857 95.4762C115.209 94.4417 114.298 93.6279 113.153 93.0624C112.008 92.483 110.642 92.1934 109.084 92.1934C107.235 92.1934 105.759 92.6072 104.669 93.421C103.579 94.2348 103.041 95.3244 103.041 96.7037C103.041 98.083 103.579 99.1589 104.669 99.9589C105.759 100.759 107.525 101.352 109.994 101.738C113.153 102.249 115.443 103.076 116.851 104.235C118.258 105.38 118.961 106.98 118.961 109.021C118.961 111.062 118.175 112.855 116.588 114.097C115.002 115.338 112.877 115.973 110.187 115.973C108.808 115.973 107.663 115.89 106.738 115.711L106.711 115.697Z" fill="#7169B0"/>
<path d="M0 73.2414H1.91762C2.81435 73.2414 3.44896 72.9104 3.83524 72.2621C4.22152 71.6138 4.41466 70.5656 4.41466 69.1173V46.2069C4.41466 44.7725 4.22152 43.7242 3.83524 43.0621C3.44896 42.4138 2.81435 42.0828 1.91762 42.0828H0V40.8828H11.5057V42.0828H9.49153C8.5948 42.0828 7.96019 42.4138 7.57391 43.0621C7.18762 43.7242 6.99448 44.7587 6.99448 46.2069V69.1173C6.99448 70.5518 7.18762 71.6 7.57391 72.2621C7.96019 72.9104 8.5948 73.2414 9.49153 73.2414H11.5057V74.4414H0V73.2414ZM5.946 56.2759H28.6263V57.7104H5.946V56.2759ZM23.108 73.2414H25.0256C25.9223 73.2414 26.557 72.9104 26.9432 72.2621C27.3295 71.6138 27.5227 70.5656 27.5227 69.1173V46.2069C27.5227 44.7725 27.3295 43.7242 26.9432 43.0621C26.557 42.4138 25.9223 42.0828 25.0256 42.0828H23.108V40.8828H34.6137V42.0828H32.5995C31.7028 42.0828 31.0682 42.4138 30.6819 43.0621C30.2956 43.7242 30.1025 44.7587 30.1025 46.2069V69.1173C30.1025 70.5518 30.2956 71.6 30.6819 72.2621C31.0682 72.9104 31.7028 73.2414 32.5995 73.2414H34.6137V74.4414H23.108V73.2414Z" fill="#7169B0"/>
<path d="M39.056 73.2827C37.7592 72.1931 37.1108 70.7448 37.1108 68.9241C37.1108 67.2 37.7592 65.8069 39.056 64.7586C40.3528 63.7103 42.4222 62.8689 45.2641 62.2621L54.6177 60.2483V61.6827L45.747 63.5586C43.512 64.0414 41.9117 64.6621 40.946 65.4483C39.9803 66.2345 39.5113 67.3103 39.5113 68.6896C39.5113 70.069 39.9803 71.131 40.9322 71.9034C41.8703 72.6758 43.2361 73.0483 45.0296 73.0483C46.6851 73.0483 48.175 72.7172 49.4856 72.0689C50.7962 71.4207 51.8033 70.469 52.5069 69.2414C53.2105 68.0138 53.5554 66.6069 53.5554 65.0483V58.5241C53.5554 56.1931 52.976 54.4138 51.8033 53.1724C50.6307 51.9448 48.9062 51.3241 46.6023 51.3241C45.0434 51.3241 43.8293 51.6 42.9878 52.1655C42.1463 52.731 41.7186 53.5448 41.7186 54.6345C41.7186 55.2138 41.8427 55.7103 42.1049 56.1379C42.367 56.5655 42.7809 56.9103 43.3465 57.1724C43.1809 57.7517 42.8636 58.2207 42.3946 58.6069C41.9117 58.9931 41.3737 59.1862 40.7667 59.1862C39.9941 59.1862 39.3733 58.9103 38.8904 58.3724C38.4076 57.8345 38.1731 57.131 38.1731 56.2621C38.1731 55.0483 38.6007 53.9586 39.4699 52.9793C40.3252 52 41.5116 51.2414 43.0154 50.6759C44.5191 50.1103 46.1608 49.8345 47.9543 49.8345C50.5065 49.8345 52.4793 50.5655 53.8727 52.0138C55.2661 53.4621 55.9559 55.5172 55.9559 58.1793V69.3517C55.9559 70.4 56.0249 71.2 56.149 71.7517C56.2732 72.2896 56.4801 72.6896 56.7422 72.9241C57.0182 73.1586 57.4182 73.2827 57.9701 73.2827H59.5566V74.4276H54.1348L53.6106 70.069H53.376C52.4103 71.6 51.1411 72.7862 49.5684 73.6414C47.9819 74.4827 46.2298 74.9103 44.3122 74.9103C42.1049 74.9103 40.3528 74.3724 39.056 73.2827Z" fill="#7169B0"/>
<path d="M60.067 82.8689H61.5984C62.1364 82.8689 62.5641 82.7448 62.84 82.5103C63.1297 82.2758 63.3228 81.8758 63.4332 81.3379C63.5436 80.8 63.5988 80 63.5988 78.9379V54.1517C63.5988 53.2276 63.3918 52.5931 63.0055 52.2621C62.6055 51.931 61.8329 51.7517 60.674 51.7517H59.5704V50.6483L65.3232 49.8345H65.9992V55.1586H66.2338C67.3788 53.3655 68.7308 52.0414 70.2621 51.1586C71.7935 50.2759 73.5179 49.8345 75.4356 49.8345C77.5463 49.8345 79.4088 50.331 81.0505 51.3241C82.6784 52.3172 83.9338 53.7241 84.8167 55.5448C85.6997 57.3655 86.1411 59.4621 86.1411 61.8207C86.1411 64.3172 85.6583 66.5103 84.7064 68.4138C83.7407 70.3172 82.4025 71.7931 80.6504 72.8414C78.8983 73.8896 76.8979 74.4276 74.6354 74.4276C73.0075 74.4276 71.49 74.1931 70.0828 73.7379C68.6756 73.2827 67.3236 72.5655 66.013 71.6V78.9379C66.013 79.9586 66.0958 80.7448 66.2751 81.3103C66.4545 81.8759 66.758 82.2621 67.1857 82.5103C67.6133 82.7586 68.2204 82.8689 68.9791 82.8689H71.3796V84.0138H60.067V82.8689ZM79.4502 71.7103C80.7608 70.8827 81.7678 69.6827 82.4714 68.1379C83.175 66.5931 83.5199 64.7724 83.5199 62.7034C83.5199 59.3103 82.7336 56.6896 81.147 54.8138C79.5605 52.9379 77.367 52.0138 74.5526 52.0138C71.9314 52.0138 69.8483 52.8276 68.3169 54.4552C66.7856 56.0827 66.013 58.2896 66.013 61.0758V67.4483C66.4959 69.0758 67.5444 70.4 69.1723 71.4207C70.8002 72.4414 72.6764 72.9517 74.7872 72.9517C76.5806 72.9517 78.1258 72.5379 79.4364 71.7103H79.4502Z" fill="#7169B0"/>
<path d="M88.0311 82.8689H89.5625C90.1005 82.8689 90.5282 82.7448 90.8041 82.5103C91.0938 82.2758 91.2869 81.8758 91.3973 81.3379C91.5077 80.8 91.5629 80 91.5629 78.9379V54.1517C91.5629 53.2276 91.3559 52.5931 90.9696 52.2621C90.5696 51.931 89.797 51.7517 88.6381 51.7517H87.5345V50.6483L93.2873 49.8345H93.9633V55.1586H94.1979C95.3429 53.3655 96.6949 52.0414 98.2262 51.1586C99.7576 50.2759 101.482 49.8345 103.4 49.8345C105.51 49.8345 107.373 50.331 109.015 51.3241C110.642 52.3172 111.898 53.7241 112.781 55.5448C113.664 57.3655 114.105 59.4621 114.105 61.8207C114.105 64.3172 113.622 66.5103 112.67 68.4138C111.705 70.3172 110.367 71.7931 108.615 72.8414C106.862 73.8896 104.862 74.4276 102.6 74.4276C100.972 74.4276 99.4541 74.1931 98.0469 73.7379C96.6397 73.2827 95.2877 72.5655 93.9771 71.6V78.9379C93.9771 79.9586 94.0599 80.7448 94.2392 81.3103C94.4186 81.8759 94.7221 82.2621 95.1498 82.5103C95.5774 82.7586 96.1845 82.8689 96.9432 82.8689H99.3437V84.0138H88.0311V82.8689ZM107.4 71.7103C108.711 70.8827 109.718 69.6827 110.422 68.1379C111.125 66.5931 111.47 64.7724 111.47 62.7034C111.47 59.3103 110.684 56.6896 109.097 54.8138C107.511 52.9379 105.317 52.0138 102.503 52.0138C99.8817 52.0138 97.7986 52.8276 96.2672 54.4552C94.7359 56.0827 93.9633 58.2896 93.9633 61.0758V67.4483C94.4462 69.0758 95.4947 70.4 97.1226 71.4207C98.7505 72.4414 100.627 72.9517 102.737 72.9517C104.531 72.9517 106.076 72.5379 107.387 71.7103H107.4Z" fill="#7169B0"/>
<path d="M119.168 83.5037C118.547 82.9934 118.23 82.3313 118.23 81.5451C118.23 80.8692 118.465 80.3037 118.92 79.8485C119.375 79.3796 119.996 79.1037 120.769 79.0072C121.114 79.6416 121.527 80.152 121.996 80.5106C122.466 80.883 122.935 81.0623 123.417 81.0623C123.997 81.0623 124.507 80.8003 124.949 80.2899C125.39 79.7796 125.845 78.9796 126.287 77.8899L128.356 72.7589L127.777 75.5451L118.23 55.1175C117.623 53.8072 117.099 52.8968 116.671 52.3865C116.244 51.8761 115.802 51.6141 115.347 51.6141H114.533V50.4692H124.935V51.6141H122.493C121.445 51.6141 120.81 52.0141 120.617 52.8417C120.424 53.6692 120.672 54.8003 121.334 56.2623L128.48 71.752H128.715L134.799 56.3175C135.406 54.7865 135.585 53.6141 135.323 52.8141C135.061 52.0141 134.385 51.6141 133.268 51.6141H130.577V50.4692H139.972V51.6141H139.296C138.883 51.6141 138.455 51.9037 138.027 52.4692C137.6 53.0348 137.117 53.9589 136.606 55.2003L127.598 77.9727C126.728 80.1796 125.818 81.7796 124.838 82.7727C123.859 83.7658 122.741 84.2623 121.458 84.2623C120.534 84.2623 119.762 84.0003 119.127 83.4899L119.168 83.5037Z" fill="#7169B0"/>
</svg>
