<svg width="148" height="67" viewBox="0 0 148 67" fill="none" xmlns="http://www.w3.org/2000/svg">
<g clip-path="url(#clip0_1_11)">
<path d="M146.493 65.4827C147.507 64.6948 148 63.6443 148 62.2727C148 61.4557 147.826 60.8137 147.449 60.3176C147.073 59.8215 146.522 59.413 145.769 59.092C145.015 58.771 144.059 58.4208 142.929 58.0998C142.465 57.9539 142.059 57.8372 141.74 57.7205C141.422 57.6038 141.19 57.4578 141.045 57.3119C140.9 57.1368 140.813 56.9618 140.813 56.6991C140.813 56.4365 140.9 56.2031 141.045 56.0571C141.19 55.9112 141.393 55.7945 141.624 55.7362C141.856 55.6778 142.146 55.6194 142.436 55.6194C143.016 55.6194 143.595 55.7362 144.204 55.9988C144.812 56.2322 145.508 56.6408 146.261 57.166L147.884 54.5689C147.102 53.8686 146.261 53.3433 145.363 53.0515C144.464 52.7597 143.537 52.6138 142.61 52.6138C141.422 52.6138 140.436 52.7889 139.596 53.1682C138.755 53.5476 138.089 54.0728 137.625 54.744C137.162 55.4152 136.93 56.2031 136.93 57.1369C136.93 57.8956 137.104 58.5084 137.451 58.9753C137.799 59.4422 138.321 59.8507 139.016 60.1717C139.712 60.4927 140.581 60.8429 141.624 61.193C142.146 61.3389 142.581 61.4557 142.929 61.6016C143.276 61.7183 143.537 61.8642 143.711 62.0101C143.885 62.156 143.972 62.3311 143.972 62.5937C143.972 62.9439 143.827 63.1774 143.508 63.3524C143.218 63.4983 142.784 63.5859 142.262 63.5859C141.567 63.5859 140.842 63.44 140.031 63.119C139.248 62.8272 138.437 62.3603 137.625 61.7475L136.176 64.3738C136.959 65.1325 137.886 65.6869 138.987 66.0955C140.089 66.4748 141.219 66.6791 142.378 66.6791C144.088 66.6791 145.45 66.2997 146.464 65.5119" fill="#7169B0"/>
<path d="M134.727 57.7205C134.727 57.166 134.669 56.5824 134.582 55.9696C134.466 55.3568 134.293 54.8024 134.003 54.3063C133.713 53.8102 133.307 53.4017 132.757 53.0807C132.206 52.7597 131.481 52.6138 130.583 52.6138C129.801 52.6138 129.076 52.7013 128.41 52.9056C127.743 53.0807 127.134 53.3725 126.613 53.7518C126.091 54.1312 125.657 54.5981 125.309 55.1525V52.818H121.57V66.3873H125.714V58.6251C125.859 58.1582 126.12 57.7788 126.439 57.3995C126.758 57.0493 127.134 56.7575 127.54 56.5532C127.946 56.349 128.323 56.2614 128.699 56.2614C129.25 56.2614 129.685 56.4657 130.032 56.8742C130.38 57.2828 130.554 57.9247 130.554 58.8002V66.3873H134.698V57.7205H134.727Z" fill="#7169B0"/>
<path d="M115.427 61.4557C115.166 61.9809 114.818 62.3895 114.354 62.6813C113.891 62.9731 113.369 63.119 112.818 63.119C112.268 63.119 111.717 62.9731 111.254 62.6813C110.79 62.3895 110.442 61.9809 110.181 61.4557C109.92 60.9304 109.776 60.3176 109.776 59.6464C109.776 58.9753 109.92 58.3333 110.181 57.808C110.471 57.2828 110.819 56.8742 111.283 56.5824C111.746 56.2906 112.239 56.1447 112.818 56.1447C113.398 56.1447 113.891 56.2906 114.354 56.6116C114.818 56.9034 115.166 57.3411 115.427 57.8372C115.687 58.3625 115.803 58.9753 115.803 59.6464C115.803 60.3176 115.687 60.9596 115.427 61.4557ZM119.6 56.9618C119.281 56.1155 118.788 55.3568 118.18 54.7148C117.542 54.0728 116.789 53.5476 115.89 53.1682C114.992 52.7889 113.949 52.6138 112.789 52.6138C111.63 52.6138 110.587 52.7889 109.689 53.1682C108.79 53.5476 108.008 54.0436 107.399 54.7148C106.791 55.386 106.327 56.1155 105.979 56.9618C105.66 57.808 105.487 58.7126 105.487 59.6464C105.487 60.5802 105.66 61.4557 105.979 62.3019C106.298 63.1482 106.762 63.9069 107.399 64.5489C108.037 65.22 108.79 65.7161 109.689 66.0955C110.587 66.4748 111.601 66.6499 112.789 66.6499C113.978 66.6499 114.992 66.4748 115.89 66.0955C116.789 65.7161 117.571 65.22 118.18 64.5489C118.817 63.8777 119.281 63.1482 119.6 62.3019C119.919 61.4557 120.092 60.5802 120.092 59.6464C120.092 58.7126 119.919 57.808 119.6 56.9618Z" fill="#7169B0"/>
<path d="M10.1429 66.5331C10.9833 66.2121 11.6789 65.7744 12.2874 65.2491C12.896 64.7239 13.3597 64.0819 13.7074 63.3815L9.67925 62.1559C9.53435 62.3894 9.36047 62.6228 9.09966 62.8271C8.83884 63.0314 8.57802 63.2065 8.25924 63.3232C7.96944 63.4399 7.62168 63.4983 7.24495 63.4983C6.69433 63.4983 6.17269 63.3524 5.70902 63.0606C5.24534 62.7687 4.8686 62.3602 4.60778 61.835C4.34696 61.3097 4.20206 60.6969 4.20206 59.9965C4.20206 59.2962 4.34696 58.6834 4.60778 58.1873C4.8686 57.662 5.24534 57.2535 5.70902 56.9617C6.17269 56.6699 6.69433 56.524 7.24495 56.524C7.7376 56.524 8.20128 56.6407 8.607 56.8741C9.01272 57.1076 9.36047 57.4286 9.62129 57.8663L13.6785 56.6407C13.1279 55.561 12.3454 54.6856 11.2442 54.0144C10.1719 53.3432 8.83884 53.0222 7.24495 53.0222C5.65106 53.0222 4.40492 53.3432 3.33267 53.9852C2.23144 54.6272 1.42 55.4734 0.840403 56.5532C0.260807 57.6037 -0.0289917 58.7709 -0.0289917 60.0257C-0.0289917 60.9595 0.144887 61.8641 0.463665 62.7104C0.782444 63.5566 1.2751 64.3153 1.91266 64.9573C2.55021 65.5993 3.30369 66.1246 4.20206 66.5039C5.10044 66.8833 6.14371 67.0584 7.30291 67.0584C8.34618 67.0584 9.30252 66.8833 10.1429 66.5623M24.2271 66.4456C25.1255 66.0662 25.908 65.5701 26.5165 64.899C27.1541 64.2278 27.6178 63.4983 27.9365 62.652C28.2553 61.8058 28.4292 60.9303 28.4292 59.9965C28.4292 59.0627 28.2553 58.1581 27.9365 57.3119C27.6178 56.4656 27.1251 55.7069 26.5165 55.0649C25.879 54.4229 25.1255 53.8977 24.2271 53.5183C23.3288 53.139 22.2855 52.9639 21.1263 52.9639C19.9671 52.9639 18.9238 53.139 18.0254 53.5183C17.1271 53.8977 16.3446 54.3937 15.736 55.0649C15.1275 55.7069 14.6348 56.4656 14.316 57.3119C13.9972 58.1581 13.8234 59.0627 13.8234 59.9965C13.8234 60.9303 13.9972 61.8058 14.316 62.652C14.6348 63.4983 15.0985 64.257 15.736 64.899C16.3736 65.5701 17.1271 66.0662 18.0254 66.4456C18.9238 66.8249 19.9381 67 21.1263 67C22.3145 67 23.3288 66.8249 24.2271 66.4456ZM18.5181 58.1581C18.8079 57.6329 19.1557 57.2243 19.6193 56.9325C20.083 56.6407 20.5757 56.4948 21.1553 56.4948C21.7349 56.4948 22.2275 56.6407 22.6912 56.9617C23.1549 57.2535 23.5026 57.6912 23.7635 58.1873C24.0243 58.7126 24.1402 59.3254 24.1402 59.9965C24.1402 60.6677 24.0243 61.3097 23.7635 61.8058C23.5026 62.331 23.1549 62.7396 22.6912 63.0314C22.2275 63.3232 21.7059 63.4691 21.1553 63.4691C20.6047 63.4691 20.054 63.3232 19.5904 63.0314C19.1267 62.7396 18.7789 62.331 18.5181 61.8058C18.2573 61.2805 18.1124 60.6677 18.1124 59.9965C18.1124 59.3254 18.2573 58.6834 18.5181 58.1581ZM42.5134 58.0706C42.5134 57.5161 42.4554 56.9325 42.3685 56.3197C42.2526 55.7069 42.0787 55.1525 41.7889 54.6564C41.4991 54.1603 41.0934 53.7518 40.5428 53.4308C39.9922 53.1098 39.2677 52.9639 38.3693 52.9639C37.5868 52.9639 36.8623 53.0514 36.1958 53.2557C35.5293 53.4308 34.9207 53.7226 34.3991 54.1019C33.8774 54.4813 33.4427 54.9482 33.095 55.5026V53.1681H29.3566V66.7374H33.5007V58.9752C33.6456 58.5083 33.9064 58.1289 34.2252 57.7496C34.544 57.3994 34.9207 57.1076 35.3264 56.9033C35.7321 56.6991 36.1089 56.6115 36.4856 56.6115C37.0362 56.6115 37.4709 56.8158 37.8187 57.2243C38.1664 57.6329 38.3403 58.2748 38.3403 59.1503V66.7374H42.4844V58.0706H42.5134ZM57.1772 58.0706C57.1772 57.5161 57.1192 56.9325 57.0323 56.3197C56.9164 55.7069 56.7425 55.1525 56.4527 54.6564C56.1629 54.1603 55.7572 53.7518 55.2066 53.4308C54.656 53.1098 53.9315 52.9639 53.0331 52.9639C52.2506 52.9639 51.5261 53.0514 50.8596 53.2557C50.1931 53.4308 49.5845 53.7226 49.0628 54.1019C48.5412 54.4813 48.1065 54.9482 47.7588 55.5026V53.1681H44.0204V66.7374H48.1645V58.9752C48.3094 58.5083 48.5702 58.1289 48.889 57.7496C49.2077 57.3994 49.5845 57.1076 49.9902 56.9033C50.3959 56.6991 50.7727 56.6115 51.1494 56.6115C51.7 56.6115 52.1347 56.8158 52.4825 57.2243C52.8302 57.6329 53.0041 58.2748 53.0041 59.1503V66.7374H57.1482V58.0706H57.1772Z" fill="#7169B0"/>
<path d="M103.893 52.6721H99.7486V66.4165H103.893V52.6721Z" fill="#7169B0"/>
<path d="M104.009 49.8415C104.009 51.0088 103.081 51.9426 101.922 51.9426C100.763 51.9426 99.8355 51.0088 99.8355 49.8415C99.8355 48.6743 100.763 47.7405 101.922 47.7405C103.081 47.7405 104.009 48.6743 104.009 49.8415Z" fill="#7169B0"/>
<path d="M85.8962 45.2309C86.8236 45.9021 88.0987 45.6978 88.7652 44.764C89.4318 43.8594 89.2289 42.5463 88.3016 41.8751L81.4333 36.8268C82.2158 34.7841 82.1578 32.4496 81.0856 30.3777C79.115 26.4674 74.3043 24.8917 70.421 26.876C68.6243 27.8098 67.1463 29.4439 66.4798 31.5158C66.103 32.683 66.0161 33.8795 66.161 35.0175L71.812 30.8738C72.7684 30.1735 74.0725 29.9692 75.2027 30.3485C76.188 30.6695 76.9705 31.3699 77.4051 32.2453C77.8398 33.1208 77.9558 34.1713 77.637 35.1634C77.3762 35.9513 76.9125 36.5641 76.3329 37.031C74.4202 38.4025 72.5076 39.8324 70.6239 41.2039C70.9137 41.3498 71.2324 41.4666 71.5802 41.5833C74.2174 42.4295 76.9705 41.8751 78.999 40.2118L85.8673 45.2309H85.8962Z" fill="#7169B0"/>
<path d="M80.1292 58.3916C79.7815 59.4713 80.3611 60.6385 81.4623 61.0179C82.5346 61.3681 83.6938 60.7844 84.0705 59.6756L86.7077 51.534C88.8812 51.6507 91.0546 50.8628 92.7065 49.2287C95.7784 46.1063 95.7784 41.0288 92.7065 37.9356C91.2575 36.4765 89.2869 35.6011 87.1134 35.6011C85.8962 35.6011 84.737 35.8929 83.7227 36.3598L89.3738 40.5035C90.3301 41.2039 90.9097 42.3711 90.9097 43.5675C90.9097 44.6181 90.475 45.581 89.7795 46.2814C89.084 46.9817 88.1567 47.3903 87.0844 47.3903C86.273 47.3903 85.5485 47.1568 84.9399 46.7191C83.0562 45.3184 81.1435 43.9469 79.2309 42.5462C79.2019 42.8672 79.1729 43.2174 79.1729 43.5675C79.1729 46.3689 80.5639 48.791 82.7664 50.25L80.1292 58.3916Z" fill="#7169B0"/>
<path d="M97.4882 62.3603C97.2273 62.4478 96.9376 62.5354 96.6188 62.6521C96.3 62.7688 95.9812 62.8272 95.6624 62.8272C95.2857 62.8272 95.0249 62.7396 94.793 62.5354C94.5902 62.3311 94.4743 62.0101 94.4453 61.5432V55.9988H97.1984V52.818H94.4453V49.8416C94.3004 50.0166 94.1555 50.2209 93.9816 50.396C93.9816 50.396 93.9526 50.4252 93.9236 50.4544C93.0543 51.3298 92.04 52.001 90.9677 52.4679C90.2142 52.8764 89.4028 53.1974 88.5624 53.3433V55.9988H90.3012V63.0315C90.3012 63.9069 90.475 64.6072 90.8228 65.1325C91.1706 65.6578 91.6342 66.0371 92.2138 66.2706C92.7934 66.504 93.431 66.6207 94.0975 66.6207C94.5902 66.6207 95.1118 66.5624 95.6045 66.4748C96.0971 66.3873 96.5608 66.2414 97.0245 66.0955C97.4882 65.9496 97.8939 65.7745 98.2706 65.5994L97.4882 62.3311V62.3603Z" fill="#7169B0"/>
<path d="M62.9152 42.8964C62.5674 41.8167 61.4083 41.2039 60.307 41.554C59.2348 41.9042 58.6262 43.0715 58.974 44.1803L61.6111 52.3219C61.6111 52.3219 61.3793 52.4678 61.2634 52.5553C59.4956 53.8393 58.4233 55.7361 58.1046 57.7496C57.2641 62.0101 60.5678 66.2121 64.683 66.8833C68.0446 67.2335 71.2034 65.9203 72.8843 62.8271H66.2769C65.9581 62.8271 65.6393 62.8271 65.3205 62.7688C64.3642 62.6229 63.4658 62.0976 62.8283 61.2222C62.2197 60.3759 61.9879 59.3254 62.1328 58.3624C62.2777 57.3994 62.7993 56.4948 63.6687 55.8528C64.3062 55.3859 65.0597 55.1525 65.8132 55.1233C68.1606 55.1233 70.5079 55.1233 72.8843 55.1233C71.4353 52.4678 68.4793 50.8045 65.5234 50.9504L62.8862 42.838L62.9152 42.8964Z" fill="#7169B0"/>
<path d="M75.2316 35.6593C76.159 34.9882 76.3619 33.675 75.6953 32.7704C75.0288 31.8366 73.7247 31.6323 72.8263 32.3035L65.9581 37.3227C65.9581 37.3227 65.7552 37.1476 65.6393 37.06C63.8715 35.7761 61.756 35.3092 59.7274 35.6302C55.4384 36.1262 52.4825 40.591 53.12 44.7639C53.8445 48.0905 56.047 50.7168 59.4666 51.3588L57.438 45.0265C57.3511 44.7347 57.2352 44.4137 57.1772 44.0927C57.0323 43.1297 57.2352 42.1084 57.8727 41.2329C58.4813 40.3867 59.4086 39.8614 60.365 39.6863C61.3213 39.5404 62.3356 39.7447 63.205 40.3867C63.8426 40.8536 64.3062 41.4956 64.5671 42.1959C65.2916 44.4429 66.0161 46.719 66.7405 48.966C68.7981 46.7774 69.4646 43.4215 68.3924 40.6201L75.2606 35.601L75.2316 35.6593Z" fill="#7169B0"/>
<path d="M85.4325 60.872C84.9689 61.6891 84.1864 62.3602 83.288 62.6521C82.2737 62.973 81.2594 62.8563 80.3901 62.4186C79.5207 61.9809 78.8251 61.193 78.5064 60.1717C78.2455 59.4129 78.2745 58.6251 78.4774 57.8955C79.2309 55.6486 79.9264 53.3724 80.6509 51.1255C80.3321 51.1839 79.9843 51.2714 79.6656 51.3881C77.0574 52.2344 75.1447 54.3646 74.4782 56.9034H65.9871C64.8569 56.9034 63.9295 57.8372 63.9295 58.9752C63.9295 60.1133 64.8569 61.0471 65.9871 61.0471H74.5071C75.0867 63.1481 76.4778 65.0157 78.5353 66.0663C82.4186 68.0506 87.2003 66.4748 89.1999 62.5937C89.3448 62.2727 89.4897 61.9517 89.6056 61.6015L85.4615 60.8136L85.4325 60.872Z" fill="#7169B0"/>
<path d="M37.5289 33.2664L31.4141 27.2259L32.5154 25.0374L41.0064 26.3213L40.2819 27.7512L32.5154 26.3797L38.2244 31.8366L37.5289 33.2373V33.2664ZM36.2538 30.6401L35.2395 30.1149L37.0942 26.4089L38.1085 26.905L36.2248 30.6401H36.2538Z" fill="#7169B0"/>
<path d="M45.962 20.2517L44.8898 21.3022L39.2097 15.4076L40.282 14.3862L45.962 20.2808V20.2517ZM40.1371 14.503L41.5861 13.1023C42.2236 12.4603 42.8902 12.1393 43.5857 12.1101C44.2522 12.1101 44.9187 12.4019 45.5563 13.0731C46.1069 13.6567 46.3677 14.2987 46.3098 14.9699C46.2518 15.6702 45.9041 16.3122 45.2955 16.925L43.8465 18.3257L43.093 17.5378L44.3971 16.2538C44.7738 15.9037 44.9767 15.4951 45.0347 15.0866C45.0926 14.6781 44.9477 14.2987 44.6 13.9193C44.2522 13.54 43.8755 13.3941 43.4698 13.4233C43.064 13.4524 42.6873 13.6859 42.3106 14.0361L41.0065 15.32L40.1661 14.4446L40.1371 14.503Z" fill="#7169B0"/>
<path d="M51.0914 15.612L46.8604 8.57929L49.4106 7.00351C50.0192 6.62415 50.5698 6.3907 51.0625 6.27398C51.5551 6.15725 52.0188 6.15725 52.4245 6.33234C52.8302 6.47825 53.178 6.82842 53.4968 7.3245C53.7286 7.70385 53.8735 8.08321 53.9315 8.43338C53.9894 8.78356 53.9315 9.13373 53.8155 9.42554C53.6706 9.74654 53.4388 9.97999 53.091 10.2134C53.3229 10.0675 53.5547 9.97999 53.7576 10.0092C53.9604 10.0092 54.1343 10.0675 54.3082 10.1843C54.4821 10.301 54.627 10.4177 54.7429 10.5928C54.8588 10.7387 55.0037 10.9138 55.1196 11.0597C55.2356 11.2056 55.3515 11.3223 55.4674 11.4099C55.5833 11.4974 55.7282 11.5266 55.8441 11.4974C55.9601 11.4682 56.1049 11.3515 56.2788 11.1472L56.7135 11.8768C56.6266 12.1102 56.5107 12.3145 56.3078 12.4896C56.1049 12.6647 55.9021 12.7814 55.6413 12.8397C55.3805 12.8981 55.1196 12.8397 54.8588 12.723C54.598 12.6063 54.3372 12.3145 54.0764 11.9351C53.9025 11.6433 53.7286 11.4099 53.5837 11.2348C53.4388 11.0597 53.2939 10.9138 53.12 10.8554C52.9751 10.7971 52.7723 10.7679 52.5404 10.8554C52.3086 10.943 52.0478 11.0305 51.729 11.2056C51.4102 11.3807 51.0045 11.6433 50.5118 11.9643L52.2506 14.8824L50.9755 15.6411L51.0914 15.612ZM50.0482 11.0013L51.2943 10.2426C51.7 9.97999 52.0188 9.77572 52.2796 9.57145C52.5115 9.36718 52.6563 9.16291 52.6853 8.92946C52.7143 8.69601 52.6563 8.43338 52.4535 8.11239C52.2506 7.76222 51.9898 7.55795 51.758 7.47041C51.4972 7.41204 51.2074 7.4704 50.8886 7.58713C50.5698 7.73304 50.1931 7.9373 49.7584 8.19993L48.7441 8.81274L50.0482 10.9721V11.0013Z" fill="#7169B0"/>
<path d="M62.2777 10.3011C61.0315 10.7096 59.9593 10.6221 59.0609 10.0968C58.1625 9.57154 57.525 8.66692 57.1193 7.41213C56.8584 6.59506 56.7715 5.83635 56.8874 5.136C57.0033 4.43565 57.2642 3.82285 57.7278 3.29759C58.1915 2.77232 58.858 2.39297 59.7274 2.10116C61.0026 1.69262 62.0748 1.75098 62.9442 2.30542C63.8426 2.83069 64.4801 3.70612 64.8569 4.96091C65.1177 5.77799 65.1756 6.5367 65.0887 7.23704C64.9728 7.93739 64.712 8.5502 64.2483 9.07546C63.7846 9.60072 63.1181 10.0093 62.2777 10.2719V10.3011ZM61.843 8.92955C62.3936 8.75447 62.8283 8.49184 63.1181 8.14166C63.4079 7.79149 63.5818 7.38295 63.6397 6.91605C63.6977 6.44915 63.6397 5.95307 63.4948 5.42781C63.3209 4.90255 63.0891 4.46483 62.7703 4.11466C62.4515 3.76448 62.0748 3.53103 61.6401 3.41431C61.2054 3.29758 60.6838 3.32677 60.1332 3.50185C59.3217 3.76448 58.7711 4.2022 58.5103 4.84419C58.2495 5.48617 58.2495 6.2157 58.5103 7.03278C58.6842 7.52886 58.916 7.96657 59.2058 8.34593C59.5246 8.6961 59.9013 8.92955 60.336 9.07546C60.7707 9.19218 61.2924 9.163 61.843 8.98792V8.92955Z" fill="#7169B0"/>
<path d="M70.7398 8.55009C70.3341 8.57927 69.9573 8.55009 69.6385 8.46254C69.2908 8.375 69.001 8.22909 68.7402 8.02483C68.4794 7.82056 68.2765 7.55793 68.1316 7.23693C67.9867 6.91594 67.8708 6.53659 67.8418 6.09887L69.2328 5.98214C69.2328 6.21559 69.2908 6.41986 69.3777 6.62413C69.4647 6.8284 69.6096 6.9743 69.8124 7.09103C70.0153 7.20775 70.2761 7.26612 70.5949 7.23693C71.0296 7.20775 71.3194 7.06185 71.4933 6.79922C71.6671 6.53659 71.7251 6.09887 71.6961 5.4277L71.2904 0.350174L72.7684 0.233449L73.1451 5.10671C73.1741 5.60279 73.1741 6.04051 73.1451 6.44904C73.0871 6.85758 73.0002 7.20775 72.8263 7.49957C72.6524 7.79138 72.3916 8.02483 72.0729 8.19991C71.7541 8.375 71.2904 8.49173 70.7398 8.52091V8.55009ZM69.7255 1.4007L69.6385 0.262631L72.7684 0L72.8553 1.13807L69.7255 1.37152V1.4007Z" fill="#7169B0"/>
<path d="M76.0721 8.1999L77.0864 0.0583496L82.8534 0.787879L82.7085 2.07185L78.3905 1.51741L78.1296 3.64764L81.4623 4.05617L81.3174 5.28178L77.9848 4.87325L77.695 7.20774L82.1578 7.76218L82.0129 8.95861L76.1011 8.1999H76.0721Z" fill="#7169B0"/>
<path d="M87.4901 10.8261C86.7656 10.5635 86.186 10.155 85.7223 9.65888C85.2587 9.13362 84.9689 8.52082 84.824 7.82047C84.708 7.12012 84.824 6.30305 85.1138 5.42761C85.4325 4.58136 85.8672 3.91019 86.4468 3.44329C86.9974 2.97639 87.635 2.68458 88.3305 2.59704C89.026 2.50949 89.7505 2.59704 90.475 2.85967C91.1705 3.1223 91.7212 3.47247 92.1269 3.91019C92.5326 4.34791 92.7934 4.84399 92.9383 5.39843C93.0832 5.95287 93.0832 6.50732 92.9963 7.09094L91.5763 6.56568C91.6632 6.12796 91.6342 5.77779 91.4893 5.45679C91.3444 5.1358 91.1416 4.87317 90.8518 4.6689C90.562 4.46463 90.3011 4.28955 89.9824 4.17282C89.1709 3.88101 88.4754 3.88101 87.8668 4.17282C87.2583 4.46463 86.8236 5.01908 86.5048 5.86533C86.186 6.74077 86.1281 7.49948 86.3889 8.14146C86.6207 8.78345 87.1713 9.25035 87.9538 9.54216C88.3015 9.65888 88.6203 9.74643 88.9971 9.74643C89.3448 9.74643 89.6926 9.68807 90.0113 9.54216C90.3301 9.39625 90.5909 9.10444 90.7938 8.72509L92.2428 9.25035C91.924 9.77561 91.5473 10.2133 91.0836 10.5343C90.6199 10.8845 90.0983 11.0888 89.4897 11.1471C88.8811 11.2055 88.2146 11.1179 87.4901 10.8261Z" fill="#7169B0"/>
<path d="M100.154 8.34585L95.8363 14.9992L94.5901 14.1821L98.9081 7.52878L100.154 8.34585ZM96.3289 7.06188L97.0245 5.98218L102.299 9.45474L101.603 10.5344L96.3289 7.06188Z" fill="#7169B0"/>
<path d="M104.588 23.5784C103.777 22.5279 103.487 21.5066 103.661 20.4561C103.835 19.4055 104.443 18.5009 105.487 17.713C106.182 17.1878 106.849 16.8376 107.544 16.6917C108.24 16.5458 108.906 16.6041 109.544 16.8668C110.181 17.1294 110.79 17.6255 111.34 18.3258C112.152 19.3764 112.471 20.4269 112.268 21.4482C112.094 22.4696 111.485 23.3742 110.442 24.1621C109.776 24.6873 109.109 25.0083 108.385 25.1542C107.689 25.3001 107.022 25.2418 106.356 24.9791C105.718 24.7165 105.11 24.2496 104.559 23.5201L104.588 23.5784ZM105.718 22.6738C106.066 23.1407 106.472 23.4617 106.907 23.6076C107.341 23.7535 107.776 23.7827 108.24 23.666C108.703 23.5493 109.138 23.345 109.573 22.9948C110.007 22.6447 110.326 22.2653 110.558 21.8568C110.79 21.4482 110.877 21.0105 110.819 20.5436C110.79 20.0767 110.587 19.6098 110.21 19.1429C109.689 18.4717 109.08 18.1216 108.414 18.0632C107.718 18.034 107.051 18.2675 106.356 18.7927C105.921 19.1137 105.602 19.4931 105.4 19.9016C105.168 20.3102 105.081 20.7479 105.11 21.2148C105.139 21.6817 105.342 22.1486 105.718 22.6155V22.6738Z" fill="#7169B0"/>
<path d="M108.935 30.1442L108.327 28.8019L115.745 25.3877L118.18 30.6987L117.021 31.2239L115.195 27.2261L113.369 28.0724L114.76 31.1072L113.659 31.6033L112.268 28.5684L108.935 30.115V30.1442Z" fill="#7169B0"/>
</g>
<defs>
<clipPath id="clip0_1_11">
<rect width="148" height="67" fill="white"/>
</clipPath>
</defs>
</svg>
