<svg width="256" height="256" viewBox="0 0 256 256" fill="none" xmlns="http://www.w3.org/2000/svg">
<g opacity="0.5" clip-path="url(#clip0_1_55)">
<path d="M95.3699 72.5815C95.4733 73.4363 95.3494 74.246 95 75.0054C94.6558 75.7665 94.0893 76.4133 93.3058 76.9476C92.5223 77.4819 91.7145 77.7661 90.8861 77.8073C90.0523 77.8468 89.2618 77.6642 88.5057 77.2509C87.7549 76.8393 87.0973 76.2338 86.5523 75.429C85.9983 74.6154 85.6696 73.7813 85.5644 72.9318C85.4609 72.0771 85.5777 71.2709 85.9219 70.5098C86.2607 69.747 86.8272 69.1002 87.6107 68.5659C88.4013 68.028 89.2108 67.7384 90.0464 67.6936C90.8819 67.6488 91.6777 67.8331 92.4285 68.2447C93.1846 68.6581 93.8351 69.2672 94.3891 70.0808C94.9431 70.8943 95.2664 71.7268 95.3699 72.5815ZM91.5931 69.8013C91.1126 69.5197 90.608 69.3837 90.09 69.3969C89.5719 69.41 89.0582 69.5899 88.5559 69.933C88.0624 70.2671 87.7095 70.6769 87.5042 71.1588C87.2989 71.6406 87.2357 72.1573 87.32 72.7105C87.4043 73.2637 87.6447 73.8268 88.0343 74.4034C88.4203 74.9729 88.8588 75.4003 89.3446 75.6836C89.8304 75.967 90.335 76.103 90.8548 76.0845C91.3746 76.0661 91.883 75.8844 92.3818 75.552C92.8752 75.2178 93.2282 74.808 93.4388 74.3279C93.6494 73.8478 93.7109 73.3365 93.623 72.7762C93.5334 72.2212 93.3 71.6545 92.9123 71.0904C92.5227 70.5138 92.0842 70.0864 91.5984 69.8031L91.5931 69.8013ZM96.8797 74.0276L96.3345 75.4195L91.2002 74.1133L91.7366 72.7302L96.885 74.0293L96.8797 74.0276Z" fill="#7169B0"/>
<path d="M99.6251 68.8988L97.2641 63.1166L98.8526 62.4684L101.194 68.2028C101.334 68.5499 101.514 68.8276 101.727 69.0271C101.939 69.2266 102.174 69.3745 102.43 69.4585C102.685 69.5424 102.954 69.5713 103.232 69.5505C103.51 69.5296 103.787 69.4609 104.06 69.3496C104.44 69.1969 104.755 68.9754 105.002 68.6903C105.249 68.4052 105.404 68.078 105.478 67.7068C105.548 67.3338 105.5 66.9401 105.326 66.5169L102.984 60.7825L104.573 60.1344L106.934 65.9165C107.164 66.4761 107.271 67.0133 107.25 67.5262C107.231 68.0338 107.111 68.5081 106.886 68.9421C106.661 69.3762 106.36 69.7556 105.981 70.0803C105.603 70.4051 105.17 70.6644 104.679 70.8637C104.201 71.0612 103.71 71.1718 103.213 71.2096C102.718 71.2422 102.236 71.1841 101.782 71.0355C101.324 70.8851 100.909 70.6369 100.535 70.2838C100.159 69.936 99.855 69.4761 99.6233 68.9041L99.6251 68.8988Z" fill="#7169B0"/>
<path d="M113.469 67.7768L111.733 68.1169L113.304 57.8196L115.027 57.4814L120.397 66.4058L118.622 66.7568L117.406 64.6865L113.8 65.3993L113.464 67.7751L113.469 67.7768ZM114.531 60.5606L114.027 63.8971L116.654 63.377L114.935 60.4806C114.867 60.3638 114.799 60.247 114.735 60.1195C114.67 59.9921 114.618 59.8805 114.584 59.7867C114.593 59.8842 114.594 60.0084 114.589 60.1486C114.585 60.2888 114.562 60.4291 114.536 60.5623L114.531 60.5606Z" fill="#7169B0"/>
<path d="M126.115 56.3175L126.274 66.1133L124.546 66.1428L124.387 56.3471L126.115 56.3175ZM124.814 66.1362L124.817 64.596L130.166 64.5084L130.192 66.052L124.819 66.138L124.814 66.1362Z" fill="#7169B0"/>
<path d="M137.517 56.9339L136.329 66.6598L134.624 66.455L135.813 56.7291L137.515 56.9392L137.517 56.9339Z" fill="#7169B0"/>
<path d="M142.648 59.3667L143.079 57.8014L150.655 59.8732L150.224 61.4385L142.648 59.3667ZM147.514 59.7818L145.124 68.5233L143.472 68.0698L145.859 59.3337L147.512 59.7871L147.514 59.7818Z" fill="#7169B0"/>
<path d="M155.891 68.447L155.429 61.6284L157.213 62.4911L157.403 66.5394C157.407 66.6885 157.408 66.8304 157.407 66.9599C157.405 67.0895 157.404 67.219 157.399 67.3415C157.532 67.2255 157.652 67.1291 157.749 67.0488C157.847 66.9685 157.94 66.8988 158.031 66.8398L161.318 64.4695L163.047 65.3023L157.447 69.1937L155.769 72.6707L154.215 71.9187L155.893 68.4417L155.891 68.447Z" fill="#7169B0"/>
<path d="M176.704 76.3785L170.563 83.0388L169.302 81.8755L175.444 75.2152L176.704 76.3785ZM172.573 73.7775L173.673 72.5851L179.449 77.9109L178.349 79.1032L172.573 73.7775Z" fill="#7169B0"/>
<path d="M184.313 83.6227L176.69 89.779L175.61 88.4445L183.234 82.2881L184.313 83.6227Z" fill="#7169B0"/>
<path d="M180.584 95.2077L179.795 93.7795L188.367 89.0328L189.162 90.4627L183.875 97.0196L192.24 96.0197L193.06 97.4991L184.488 102.246L183.668 100.766L186.308 99.3058C186.885 98.9872 187.36 98.7294 187.731 98.5325C188.103 98.3355 188.407 98.1815 188.653 98.0614C188.9 97.9413 189.089 97.8499 189.24 97.7871L182.524 98.6904L181.738 97.2694L186.057 92.0603C185.824 92.2495 185.506 92.464 185.095 92.7073C184.685 92.9506 184.214 93.2154 183.67 93.5037L180.596 95.2059L180.584 95.2077Z" fill="#7169B0"/>
<path d="M188.074 112.753L186.267 106.94L195.624 104.033L197.426 109.844L195.875 110.322L194.398 105.573L195.138 105.964L192.205 106.874L193.373 110.623L191.927 111.07L190.76 107.321L187.755 108.254L188.131 107.521L189.609 112.27L188.071 112.746L188.074 112.753Z" fill="#7169B0"/>
<path d="M60.4917 142.651C59.6723 142.376 58.9976 141.913 58.4623 141.277C57.9269 140.64 57.5842 139.849 57.4378 138.909C57.2913 137.969 57.3813 137.119 57.7024 136.356C58.0199 135.587 58.5296 134.951 59.2263 134.447C59.923 133.943 60.7519 133.613 61.7094 133.466C62.6793 133.318 63.5756 133.376 64.3896 133.649C65.2053 133.916 65.8818 134.374 66.4242 135.007C66.9667 135.64 67.3094 136.431 67.4522 137.364C67.5969 138.309 67.5105 139.166 67.1913 139.941C66.8738 140.711 66.3623 141.353 65.6709 141.858C64.9742 142.362 64.14 142.69 63.1701 142.839C62.2002 142.987 61.3056 142.924 60.4917 142.651ZM58.5362 143.391L57.5125 142.3L60.8981 138.226L61.9218 139.299L58.5362 143.391ZM64.6208 140.433C65.0841 140.118 65.4212 139.721 65.63 139.246C65.8389 138.771 65.8984 138.23 65.8051 137.632C65.7153 137.042 65.4947 136.544 65.1504 136.154C64.8025 135.756 64.3611 135.482 63.8298 135.319C63.2984 135.157 62.6808 135.131 61.9911 135.236C61.312 135.344 60.7416 135.552 60.2712 135.87C59.8078 136.185 59.4708 136.582 59.2655 137.064C59.0601 137.546 59.0024 138.082 59.0921 138.672C59.1819 139.263 59.3972 139.759 59.7398 140.155C60.0824 140.55 60.5237 140.825 61.0604 140.989C61.5988 141.148 62.2093 141.177 62.8938 141.071C63.5835 140.967 64.1609 140.754 64.619 140.438L64.6208 140.433Z" fill="#7169B0"/>
<path d="M63.252 148.08L69.0988 145.882L69.7009 147.485L63.9072 149.665C63.5565 149.798 63.277 149.966 63.0668 150.175C62.8567 150.383 62.7105 150.613 62.6159 150.865C62.5266 151.119 62.4871 151.384 62.5008 151.666C62.5146 151.948 62.5763 152.228 62.6752 152.503C62.8207 152.887 63.0298 153.204 63.3061 153.46C63.5824 153.716 63.9061 153.881 64.2756 153.961C64.645 154.041 65.0423 154 65.4727 153.84L71.2717 151.661L71.8738 153.264L66.027 155.462C65.4602 155.678 64.9176 155.766 64.4082 155.735C63.8988 155.703 63.4297 155.567 63.0045 155.333C62.574 155.097 62.2034 154.787 61.8946 154.396C61.5804 154.004 61.3335 153.569 61.1483 153.071C60.965 152.585 60.8668 152.093 60.8467 151.596C60.8266 151.099 60.8953 150.62 61.0617 150.167C61.2228 149.711 61.487 149.302 61.8472 148.942C62.2092 148.576 62.6763 148.287 63.2555 148.069L63.252 148.08Z" fill="#7169B0"/>
<path d="M65.8566 162.894L64.9338 161.387L75.1374 159.301L76.0513 160.8L69.5354 168.926L68.5947 167.383L70.1189 165.527L68.2053 162.395L65.8602 162.901L65.8566 162.894ZM72.9932 161.391L69.6872 162.072L71.0857 164.362L73.2078 161.745C73.289 161.642 73.3825 161.536 73.4761 161.431C73.5696 161.326 73.6579 161.237 73.7321 161.173C73.6418 161.214 73.532 161.261 73.3956 161.299C73.2574 161.342 73.1227 161.374 72.9879 161.389L72.9932 161.391Z" fill="#7169B0"/>
<path d="M81.5037 168.157L74.1567 174.641L73.0113 173.344L80.3583 166.86L81.5037 168.157ZM73.1879 173.543L74.3596 172.546L77.8974 176.559L76.7419 177.579L73.1862 173.549L73.1879 173.543Z" fill="#7169B0"/>
<path d="M88.5174 175.094L82.1117 182.506L80.8146 181.383L87.2202 173.971L88.5174 175.094Z" fill="#7169B0"/>
<path d="M90.7134 179.02L91.5869 177.654L98.2079 181.88L97.3344 183.247L90.7134 179.02ZM95.238 180.853L90.3647 188.49L88.9195 187.567L93.7928 179.93L95.238 180.853Z" fill="#7169B0"/>
<path d="M101.794 190.066L100.898 183.294L102.738 184.04L103.181 188.071C103.196 188.223 103.209 188.363 103.215 188.489C103.221 188.615 103.225 188.746 103.231 188.872C103.36 188.749 103.471 188.644 103.559 188.555C103.653 188.468 103.743 188.391 103.823 188.328L106.953 185.753L108.731 186.472L103.389 190.714L101.938 194.289L100.333 193.638L101.783 190.063L101.794 190.066Z" fill="#7169B0"/>
<path d="M120.555 189.004L119.596 198.752L117.891 198.583L118.851 188.835L120.555 189.004ZM122.074 195.609L119.407 195.348L119.551 193.866L121.914 194.098C122.326 194.138 122.666 194.09 122.941 193.956C123.215 193.822 123.427 193.625 123.569 193.371C123.717 193.118 123.806 192.829 123.835 192.507C123.864 192.222 123.829 191.95 123.732 191.688C123.64 191.428 123.47 191.207 123.226 191.032C122.983 190.858 122.664 190.747 122.263 190.71L119.849 190.473L120 188.952L122.723 189.219C123.729 189.319 124.485 189.679 124.997 190.314C125.511 190.943 125.719 191.75 125.623 192.728C125.56 193.351 125.378 193.888 125.079 194.35C124.779 194.813 124.373 195.152 123.858 195.373C123.348 195.595 122.754 195.678 122.079 195.61L122.074 195.609Z" fill="#7169B0"/>
<path d="M136.916 198.753L130.85 199.243L130.056 189.475L136.122 188.985L136.254 190.599L131.298 190.999L131.838 190.361L132.087 193.419L136 193.102L136.119 194.612L132.206 194.928L132.459 198.064L131.823 197.537L136.778 197.137L136.909 198.739L136.916 198.753Z" fill="#7169B0"/>
<path d="M150.503 193.301C150.326 194.146 149.953 194.868 149.387 195.48C148.82 196.091 148.077 196.52 147.153 196.779C146.243 197.035 145.382 197.048 144.583 196.821C143.783 196.594 143.091 196.166 142.506 195.537C141.921 194.909 141.498 194.126 141.235 193.184C140.973 192.236 140.922 191.345 141.099 190.5C141.269 189.658 141.644 188.93 142.212 188.313C142.78 187.697 143.524 187.267 144.435 187.011C145.345 186.755 146.206 186.742 147.013 186.965C147.819 187.188 148.511 187.616 149.096 188.245C149.681 188.874 150.108 189.663 150.369 190.611C150.631 191.559 150.68 192.455 150.499 193.294L150.503 193.301ZM147.807 189.458C147.438 189.036 147.005 188.752 146.507 188.595C146.008 188.443 145.469 188.449 144.884 188.611C144.306 188.77 143.843 189.049 143.491 189.436C143.144 189.83 142.919 190.299 142.822 190.846C142.724 191.399 142.771 192.01 142.959 192.68C143.143 193.343 143.419 193.888 143.788 194.311C144.156 194.738 144.593 195.024 145.095 195.17C145.596 195.317 146.135 195.311 146.713 195.152C147.29 194.993 147.752 194.719 148.103 194.333C148.455 193.946 148.68 193.476 148.773 192.922C148.866 192.368 148.824 191.758 148.635 191.093C148.447 190.424 148.171 189.878 147.802 189.456L147.807 189.458Z" fill="#7169B0"/>
<path d="M154.445 183.462L158.876 192.203L157.347 192.977L152.921 184.238L154.45 183.464L154.445 183.462ZM159.271 188.211L156.878 189.422L156.208 188.097L158.325 187.026C158.693 186.84 158.954 186.619 159.111 186.357C159.268 186.095 159.341 185.818 159.331 185.526C159.315 185.231 159.239 184.94 159.091 184.656C158.962 184.401 158.783 184.189 158.568 184.017C158.352 183.846 158.087 183.754 157.786 183.737C157.484 183.721 157.156 183.802 156.797 183.98L154.635 185.078L153.942 183.717L156.379 182.479C157.279 182.024 158.116 181.92 158.887 182.179C159.66 182.433 160.264 183.003 160.71 183.876C160.993 184.435 161.131 184.988 161.123 185.535C161.115 186.081 160.954 186.59 160.648 187.056C160.336 187.521 159.88 187.902 159.271 188.211Z" fill="#7169B0"/>
<path d="M164.095 177.717L169.935 185.585L168.545 186.617L162.705 178.749L164.095 177.717ZM168.759 186.451L167.859 185.199L172.152 182.013L173.068 183.253L168.752 186.455L168.759 186.451Z" fill="#7169B0"/>
<path d="M181.615 175.019L177.4 179.406L170.338 172.619L174.552 168.232L175.725 169.355L172.282 172.938L172.266 172.106L174.48 174.232L177.199 171.397L178.29 172.446L175.571 175.281L177.844 177.461L177.02 177.486L180.465 173.898L181.624 175.01L181.615 175.019Z" fill="#7169B0"/>
<path d="M105.118 114.784C104.425 114.556 103.739 115.028 102.104 116.86L101.522 116.403C103.947 113.673 104.959 113.037 106.249 113.46C108.925 114.338 108.382 117.921 104.375 127.094L104.647 127.184C107.592 125.622 110.569 123.333 112.658 121.125L114.095 116.435L115.898 117.026L111.787 130.258L112.086 130.356C116.727 128.684 120.854 125.644 121.604 123.357C122.048 122.003 121.401 120.627 120.111 120.204C120.616 118.97 121.481 118.456 122.564 118.811C123.795 119.215 124.232 120.422 123.68 122.107C122.476 125.775 117.524 129.406 109.925 132.175L109.295 131.968L112.014 123.175L111.774 123.097C109.165 125.471 105.827 127.636 101.932 129.553L101.303 129.347C105.708 119.772 106.861 115.355 105.118 114.784Z" fill="#7169B0"/>
<path d="M123.01 132.268L128.344 124.629C129.167 123.434 129.184 122.572 128.374 122.306C127.563 122.04 126.535 122.636 124.273 124.852L123.733 124.374C126.751 121.366 128.155 120.634 129.749 121.157C131.46 121.718 131.587 123.259 130.037 125.444L124.735 133.094C123.88 134.278 123.863 135.14 124.673 135.406C125.483 135.672 126.511 135.076 128.802 132.863L129.342 133.342C126.294 136.334 124.888 137.071 123.294 136.548C121.583 135.987 121.483 134.454 123.006 132.261L123.01 132.268ZM131.18 117.604C131.475 116.703 132.442 116.188 133.343 116.483C134.126 116.74 134.488 117.456 134.231 118.239C133.936 119.14 132.98 119.624 132.073 119.327C131.295 119.071 130.919 118.381 131.174 117.603L131.18 117.604Z" fill="#7169B0"/>
<path d="M131.599 134.49L137.158 125.358L134.273 124.412L134.907 123.291L137.791 124.238C139.116 123.438 140.67 121.851 141.494 120.456L142.304 120.722L139.774 124.888L143.533 126.121L142.868 127.232L139.082 125.99L133.325 135.422C132.44 136.897 132.629 137.957 133.829 138.351C134.943 138.716 135.979 138.188 138.241 135.971L138.781 136.45C135.816 139.404 134.269 140.16 132.466 139.569C130.27 138.848 129.974 137.122 131.605 134.491L131.599 134.49Z" fill="#7169B0"/>
<path d="M149.219 140.831L153.183 135.139C154.829 132.75 154.735 131.018 152.901 130.417C150.257 129.549 145.788 133.74 140.702 141.828L138.9 141.237L149.041 123.824C149.655 122.761 149.443 122.29 148.153 121.867L147.433 121.631L147.842 120.997L152.028 121.739L152.481 121.887L148.52 128.578L145.522 133.452L145.911 133.58C149.201 129.835 151.896 128.422 154.183 129.172C156.977 130.088 157.248 132.61 154.927 135.941L150.913 141.681C150.09 142.876 150.041 143.728 150.851 143.994C151.725 144.28 152.732 143.642 154.98 141.451L155.52 141.929C152.477 144.923 151.099 145.669 149.478 145.138C147.766 144.576 147.675 143.017 149.226 140.827L149.219 140.831Z" fill="#7169B0"/>
<path d="M98.6373 217.512C49.2775 201.32 22.2982 147.992 38.488 98.6373C54.6778 49.2828 108.003 22.2964 157.363 38.488C206.723 54.6795 233.702 108.008 217.512 157.363C201.322 206.717 147.992 233.702 98.6373 217.512ZM156.959 39.7196C108.281 23.7519 55.6873 50.3639 39.7196 99.0413C23.7519 147.719 50.3639 200.313 99.0413 216.28C147.719 232.248 200.313 205.636 216.28 156.959C232.248 108.281 205.636 55.6872 156.959 39.7196Z" fill="#7169B0"/>
<path d="M98.6373 217.512C49.2775 201.32 22.2982 147.992 38.488 98.6373C54.6778 49.2828 108.003 22.2964 157.363 38.488C206.723 54.6795 233.702 108.008 217.512 157.363C201.322 206.717 147.992 233.702 98.6373 217.512ZM156.959 39.7196C108.281 23.7519 55.6873 50.3639 39.7196 99.0413C23.7519 147.719 50.3639 200.313 99.0413 216.28C147.719 232.248 200.313 205.636 216.28 156.959C232.248 108.281 205.636 55.6872 156.959 39.7196Z" fill="#7169B0"/>
<path d="M98.6373 217.512C49.2775 201.32 22.2982 147.992 38.488 98.6373C54.6778 49.2828 108.003 22.2964 157.363 38.488C206.723 54.6795 233.702 108.008 217.512 157.363C201.322 206.717 147.992 233.702 98.6373 217.512ZM156.959 39.7196C108.281 23.7519 55.6873 50.3639 39.7196 99.0413C23.7519 147.719 50.3639 200.313 99.0413 216.28C147.719 232.248 200.313 205.636 216.28 156.959C232.248 108.281 205.636 55.6872 156.959 39.7196Z" fill="#7169B0"/>
<path d="M96.5193 223.969C43.6033 206.611 14.6733 149.435 32.0314 96.5194C49.3895 43.6033 106.565 14.6734 159.481 32.0314C212.397 49.3895 241.327 106.565 223.969 159.481C206.61 212.397 149.435 241.327 96.5193 223.969ZM159.047 33.3537C106.856 16.2334 50.4739 44.7622 33.3537 96.9531C16.2334 149.144 44.7675 205.528 96.9531 222.646C149.139 239.765 205.528 211.233 222.646 159.047C239.765 106.861 211.238 50.4739 159.047 33.3537Z" fill="#7169B0"/>
<path d="M88.9393 114.508L39.3022 98.2253L38.8982 99.4569L88.5353 115.739L88.9393 114.508Z" fill="#7169B0"/>
<path d="M217.1 156.548L167.463 140.266L167.059 141.497L216.696 157.78L217.1 156.548Z" fill="#7169B0"/>
</g>
<defs>
<clipPath id="clip0_1_55">
<rect width="202" height="202" fill="white" transform="translate(63.5121 0.550781) rotate(18.1611)"/>
</clipPath>
</defs>
</svg>
