<svg width="130" height="155" viewBox="0 0 130 155" fill="none" xmlns="http://www.w3.org/2000/svg">
<g clip-path="url(#clip0_1_195)">
<path d="M68.8431 20.9211C69.1762 21.1629 69.6502 21.0865 69.8936 20.7556C70.137 20.4248 70.0601 19.9539 69.727 19.7121L67.229 17.9051C67.5108 17.1797 67.4852 16.3398 67.1137 15.589C66.3963 14.1891 64.6541 13.6165 63.245 14.3291C62.5916 14.66 62.0536 15.2454 61.8102 15.9962C61.6693 16.4162 61.6437 16.8361 61.6949 17.2433L63.7574 15.7544C64.1033 15.4999 64.5773 15.4363 64.9872 15.5635C65.3459 15.6781 65.6277 15.9326 65.7942 16.2507C65.948 16.5561 65.9992 16.9379 65.8711 17.2942C65.7814 17.5742 65.6149 17.8033 65.3971 17.956C64.7054 18.4523 64.0136 18.9613 63.3218 19.4576C63.4371 19.5085 63.5524 19.5594 63.6677 19.5976C64.6285 19.903 65.6277 19.6994 66.3707 19.1013L68.8687 20.9084L68.8431 20.9211Z" fill="#7169B0"/>
<path d="M66.755 25.6297C66.6269 26.0242 66.8447 26.4441 67.2418 26.5714C67.6261 26.6986 68.0617 26.4823 68.1898 26.0878L69.1506 23.1736C69.932 23.2118 70.7391 22.9318 71.3283 22.3464C72.4428 21.2265 72.4428 19.4068 71.3283 18.2996C70.8031 17.7779 70.0857 17.4597 69.2915 17.4597C68.8431 17.4597 68.4332 17.5615 68.0617 17.7397L70.1113 19.2286C70.4572 19.4831 70.675 19.9031 70.675 20.3357C70.675 20.7175 70.5213 21.0611 70.2651 21.3029C70.0217 21.5447 69.6758 21.6974 69.2915 21.6974C68.9968 21.6974 68.7278 21.6083 68.51 21.4556C67.8183 20.9466 67.1265 20.463 66.4348 19.954C66.422 20.0685 66.4091 20.1958 66.4091 20.323C66.4091 21.3284 66.9087 22.1937 67.7158 22.7155L66.7678 25.6297H66.755Z" fill="#7169B0"/>
<path d="M60.4907 20.0814C60.3626 19.6869 59.9399 19.4833 59.5428 19.6105C59.1456 19.7378 58.9407 20.1577 59.0688 20.5522L60.0296 23.4664C60.0296 23.4664 59.9399 23.5173 59.9015 23.5555C59.2609 24.0136 58.8638 24.7008 58.7485 25.4262C58.4411 26.9533 59.6452 28.4677 61.1441 28.6967C62.3739 28.824 63.514 28.3531 64.1289 27.246H61.7333C61.618 27.246 61.5028 27.246 61.3875 27.2333C61.0416 27.1824 60.7085 26.9915 60.4907 26.6861C60.2601 26.3806 60.1833 26.0116 60.2473 25.668C60.2986 25.3244 60.4907 24.9935 60.7982 24.7772C61.0288 24.6118 61.3106 24.5227 61.5796 24.51C62.4379 24.51 63.2962 24.51 64.1417 24.51C63.6165 23.5555 62.5404 22.9574 61.4643 23.021L60.5035 20.1068L60.4907 20.0814Z" fill="#7169B0"/>
<path d="M64.9744 17.4852C65.3075 17.2435 65.3843 16.7726 65.1409 16.4417C64.8975 16.1109 64.4235 16.0345 64.0905 16.2763L61.5924 18.0834C61.5924 18.0834 61.5156 18.0197 61.4771 17.9943C60.8366 17.5361 60.068 17.3707 59.3378 17.4852C57.7749 17.6634 56.6989 19.2669 56.9423 20.7558C57.1985 21.952 58.0055 22.8937 59.2481 23.1228L58.5051 20.8576C58.4667 20.743 58.4283 20.6412 58.4154 20.5267C58.3642 20.1831 58.4411 19.8141 58.6589 19.5086C58.8894 19.2032 59.2097 19.0123 59.5556 18.9614C59.9015 18.9105 60.273 18.9869 60.5804 19.2032C60.811 19.3687 60.9775 19.5977 61.0672 19.8522C61.3234 20.6667 61.5924 21.4684 61.8615 22.2701C62.6173 21.4811 62.8478 20.2849 62.4635 19.2796L64.9616 17.4725L64.9744 17.4852Z" fill="#7169B0"/>
<path d="M61.5924 25.108C61.1825 25.108 60.8494 25.4389 60.8494 25.8588C60.8494 26.266 61.1825 26.5969 61.6052 26.5969H64.6925C64.6925 26.5969 64.7182 26.686 64.731 26.7369C64.9744 27.4877 65.5124 28.0731 66.1657 28.404C67.5365 29.1675 69.3555 28.5058 70.0345 27.1568C70.5341 26.037 70.4444 24.8153 69.5605 23.8863L68.8175 26.1515C68.7791 26.266 68.7534 26.3678 68.6894 26.4697C68.5229 26.7751 68.241 27.0296 67.8823 27.1441C67.5236 27.2586 67.1393 27.2205 66.8319 27.0678C66.5244 26.9023 66.2682 26.6351 66.1401 26.266C66.0505 25.9861 66.0505 25.7061 66.1401 25.4516C66.4091 24.6499 66.6654 23.8354 66.9344 23.0337C65.8583 23.2373 64.9488 24.0645 64.6797 25.0953H61.5924V25.108Z" fill="#7169B0"/>
<path d="M43.0814 20.9213L43.107 20.2213L43.9525 20.6031L46.758 21.3158L46.7196 22.3847L42.9917 23.1355L43.0173 22.4229L46.4505 21.8375L43.0814 20.9213ZM43.1711 18.7197L43.1967 18.0198L46.8477 19.0378L46.8092 20.1068L43.9525 20.6158L43.0814 20.9467L43.107 20.2341L46.5402 19.5723L43.1583 18.7324L43.1711 18.7197Z" fill="#7169B0"/>
<path d="M47.9109 15.411C47.706 15.9709 47.3857 16.3272 46.9501 16.5054C46.5146 16.6836 46.0278 16.6708 45.4641 16.4672C45.0926 16.34 44.8108 16.1618 44.5802 15.9327C44.3624 15.7037 44.2215 15.4492 44.1575 15.131C44.0934 14.8129 44.1447 14.482 44.2856 14.1002C44.4905 13.5403 44.8108 13.1713 45.2464 13.0058C45.6819 12.8277 46.1687 12.8404 46.7196 13.044C47.0782 13.1713 47.3729 13.3494 47.5907 13.5785C47.8212 13.8075 47.9622 14.0748 48.0134 14.3802C48.0775 14.6856 48.039 15.0292 47.8981 15.3983L47.9109 15.411ZM47.296 15.2074C47.3857 14.9529 47.4113 14.7365 47.3601 14.5329C47.3088 14.3293 47.2192 14.1639 47.0654 14.0112C46.9117 13.8584 46.7196 13.7439 46.489 13.6676C46.2584 13.5785 46.0278 13.553 45.8228 13.5658C45.605 13.5785 45.4257 13.6548 45.2592 13.7821C45.0926 13.9093 44.9645 14.1002 44.8749 14.342C44.7467 14.6983 44.7596 15.0165 44.9005 15.2837C45.0542 15.551 45.3104 15.7546 45.6819 15.8818C45.9125 15.9582 46.1303 15.9964 46.3352 15.9836C46.553 15.9836 46.7324 15.9073 46.8989 15.78C47.0654 15.6528 47.1935 15.4746 47.2832 15.2201L47.296 15.2074Z" fill="#7169B0"/>
<path d="M49.1151 12.3821L46.1687 10.1806L46.8733 9.25158L50.1143 10.6005L47.9109 7.87719L48.6027 6.96094L51.5491 9.1625L51.1263 9.70971L48.449 7.64813L50.6267 10.3842L50.0374 11.1604L46.8092 9.82424L49.5378 11.8222L49.1151 12.3694V12.3821Z" fill="#7169B0"/>
<path d="M52.7661 8.09352L50.5371 5.17932L52.638 3.60132L52.9838 4.05945L51.4082 5.24294L51.9974 6.00649L53.2016 5.10296L53.5347 5.53564L52.3305 6.43917L52.971 7.27907L54.5979 6.05739L54.9182 6.47735L52.7661 8.09352Z" fill="#7169B0"/>
<path d="M57.1088 1.34903L57.7493 1.08179L59.1713 4.46684L57.9927 4.95042L55.5203 2.32891L56.827 5.44673L56.1864 5.71397L54.7645 2.32891L55.8534 1.88351L58.4026 4.47957L57.096 1.36175L57.1088 1.34903Z" fill="#7169B0"/>
<path d="M60.2986 2.08713L60.1961 1.53992C60.337 1.51447 60.4523 1.46356 60.5292 1.41266C60.606 1.36176 60.6573 1.2854 60.6829 1.22177C60.7085 1.15814 60.7213 1.08179 60.7213 1.01816C60.7213 0.954532 60.7085 0.878178 60.6829 0.789097L60.9519 0.738194C60.9519 0.738194 60.9519 0.827275 60.9775 0.903629C60.9775 0.99271 60.9775 1.09452 60.9775 1.20905C60.9775 1.32358 60.9519 1.45084 60.9007 1.56537C60.8494 1.6799 60.7854 1.79443 60.6957 1.88351C60.606 1.97259 60.4651 2.03622 60.2986 2.0744V2.08713ZM60.6573 1.17087C60.5163 1.19632 60.4139 1.17087 60.3498 1.11997C60.2858 1.05634 60.2345 0.979984 60.2217 0.878178C60.1961 0.776371 60.2217 0.687291 60.2473 0.610936C60.2729 0.534582 60.3754 0.470953 60.5035 0.458227C60.6445 0.432775 60.7469 0.458227 60.811 0.50913C60.875 0.560033 60.9263 0.649114 60.9391 0.763646C60.9519 0.865452 60.9391 0.954532 60.9135 1.03089C60.875 1.10724 60.7854 1.15814 60.6573 1.1836V1.17087Z" fill="#7169B0"/>
<path d="M64.6413 3.80495C64.4363 3.80495 64.2314 3.7795 64.052 3.72859C63.8599 3.67769 63.6933 3.60134 63.5396 3.49953C63.3859 3.39772 63.2578 3.25774 63.1681 3.0923C63.0784 2.92687 63.0272 2.73598 63.0272 2.50692H63.7061C63.7061 2.50692 63.7061 2.57055 63.7061 2.62145C63.7061 2.67235 63.7318 2.72326 63.7702 2.79961C63.8086 2.87597 63.8599 2.92687 63.9367 2.9905C64.0136 3.05413 64.1033 3.10503 64.2314 3.14321C64.3595 3.18138 64.5132 3.20684 64.6925 3.20684C64.8207 3.20684 64.9359 3.20684 65.0256 3.16866C65.1153 3.14321 65.1922 3.10503 65.2562 3.06685C65.3203 3.02868 65.3715 2.97777 65.3971 2.92687C65.4227 2.87597 65.4484 2.82506 65.4484 2.77416C65.4484 2.65963 65.4099 2.55782 65.3203 2.48147C65.2306 2.40511 65.1281 2.34148 64.9872 2.30331C64.8463 2.2524 64.6925 2.21423 64.526 2.17605C64.3595 2.13787 64.1929 2.08697 64.0264 2.03606C63.8599 1.98516 63.7061 1.90881 63.5652 1.81973C63.4243 1.73065 63.3218 1.61611 63.245 1.48886C63.1681 1.34887 63.1425 1.18344 63.1553 0.967099C63.1809 0.763487 63.2578 0.585326 63.3859 0.445342C63.514 0.305358 63.6933 0.190826 63.9239 0.114472C64.1545 0.038117 64.4107 -6.03339e-05 64.7182 0.0126654C64.9872 0.0126654 65.2178 0.0635686 65.4484 0.165375C65.6661 0.267181 65.8455 0.407165 65.9864 0.585326C66.1145 0.776212 66.1914 1.00528 66.1786 1.29797H65.5252C65.5252 1.15799 65.4996 1.04345 65.4356 0.954373C65.3715 0.865293 65.2946 0.801664 65.205 0.750761C65.1153 0.699858 65.0128 0.674406 64.9103 0.648954C64.8078 0.636229 64.7182 0.623503 64.6285 0.623503C64.4107 0.623503 64.2314 0.648954 64.0905 0.725309C63.9495 0.788938 63.8727 0.90347 63.8727 1.04345C63.8727 1.17071 63.9111 1.27252 63.988 1.33615C64.0776 1.4125 64.1929 1.4634 64.3339 1.51431C64.4748 1.56521 64.6285 1.60339 64.8078 1.64157C64.9872 1.67974 65.1409 1.73065 65.3203 1.78155C65.4868 1.83245 65.6405 1.89608 65.7814 1.98516C65.9223 2.07424 66.0248 2.17605 66.1017 2.31603C66.1786 2.45602 66.217 2.63418 66.1914 2.85051C66.1914 3.05413 66.1017 3.23229 65.9736 3.37227C65.8327 3.51225 65.6533 3.62679 65.4227 3.70314C65.1922 3.7795 64.9359 3.81767 64.6413 3.80495Z" fill="#7169B0"/>
<path d="M71.5205 5.21764C71.2002 5.07766 70.944 4.8995 70.7391 4.65771C70.5341 4.41592 70.4188 4.13595 70.3804 3.81781C70.3419 3.49966 70.406 3.14334 70.5725 2.76157C70.7391 2.39252 70.9568 2.09983 71.213 1.89622C71.4821 1.6926 71.7639 1.57807 72.0842 1.56534C72.4044 1.53989 72.7247 1.60352 73.0449 1.73078C73.3524 1.87076 73.5958 2.0362 73.7751 2.23981C73.9545 2.44342 74.057 2.67249 74.1082 2.927C74.1594 3.18152 74.1594 3.42331 74.0954 3.69055L73.4677 3.42331C73.5189 3.23242 73.5061 3.06699 73.4549 2.927C73.3908 2.78702 73.3011 2.65976 73.1859 2.55796C73.0706 2.45615 72.9425 2.37979 72.8015 2.31617C72.4428 2.16346 72.1226 2.15073 71.8536 2.26526C71.5845 2.37979 71.354 2.62158 71.2002 2.99063C71.0337 3.37241 70.9953 3.716 71.0978 3.99597C71.2002 4.28866 71.418 4.505 71.7767 4.65771C71.9304 4.72134 72.0842 4.75952 72.2379 4.77224C72.3916 4.78497 72.5453 4.77224 72.6991 4.69589C72.84 4.63226 72.9681 4.51773 73.0706 4.35229L73.7111 4.61953C73.5574 4.8486 73.378 5.02676 73.1602 5.16674C72.9425 5.30672 72.6991 5.38308 72.4172 5.3958C72.1354 5.40853 71.8408 5.3449 71.5205 5.20492V5.21764Z" fill="#7169B0"/>
<path d="M74.4413 6.7065L74.7872 6.24837L76.1066 7.22826L75.7736 7.68639L74.4541 6.7065H74.4413ZM74.9024 6.91011L76.9649 4.16134L77.503 4.55584L75.4405 7.30461L74.9024 6.91011ZM76.2988 4.22497L76.6447 3.76685L77.9641 4.74673L77.6182 5.20486L76.2988 4.22497Z" fill="#7169B0"/>
<path d="M77.1314 8.84432L79.9369 6.4646L80.8208 7.49539C81.0258 7.73718 81.1795 7.96624 81.2692 8.18258C81.3589 8.39892 81.3845 8.60253 81.3461 8.79342C81.3076 8.9843 81.1795 9.16247 80.9746 9.34063C80.8208 9.46788 80.6671 9.55696 80.5134 9.60787C80.3597 9.65877 80.2059 9.65877 80.065 9.62059C79.9241 9.58242 79.7832 9.49334 79.6679 9.35335C79.7576 9.45516 79.796 9.54424 79.8088 9.63332C79.8088 9.7224 79.8088 9.81148 79.7704 9.88783C79.732 9.96419 79.6807 10.0405 79.6167 10.1169C79.5526 10.1805 79.4886 10.2569 79.4373 10.3205C79.3733 10.3841 79.3348 10.4478 79.2964 10.5114C79.2708 10.575 79.258 10.6259 79.2836 10.6896C79.3092 10.7405 79.3605 10.8041 79.4629 10.855L79.1683 11.1095C79.0658 11.0968 78.9633 11.0459 78.8737 10.9823C78.784 10.9059 78.7199 10.8168 78.6687 10.715C78.6303 10.6132 78.6303 10.4859 78.6687 10.3587C78.7071 10.2314 78.8096 10.0914 78.9633 9.96419C79.0786 9.86238 79.1683 9.7733 79.2452 9.69695C79.322 9.62059 79.3605 9.54424 79.3861 9.46788C79.4117 9.39153 79.3861 9.30245 79.3605 9.21337C79.322 9.11156 79.258 9.00976 79.1427 8.86977C79.0402 8.74251 78.8993 8.57708 78.7199 8.38619L77.5542 9.36608L77.1186 8.85705L77.1314 8.84432ZM79.0914 8.06805L79.5142 8.56435C79.6551 8.72979 79.7832 8.85705 79.8857 8.94613C79.9882 9.03521 80.0906 9.08611 80.1931 9.08611C80.2956 9.08611 80.4109 9.03521 80.539 8.9334C80.6799 8.80614 80.7568 8.69161 80.7696 8.57708C80.7696 8.46255 80.744 8.33529 80.6543 8.20803C80.5646 8.08077 80.4493 7.91534 80.2956 7.7499L79.9497 7.34268L79.0914 8.06805Z" fill="#7169B0"/>
<path d="M80.5262 13.8584C80.3725 13.553 80.3084 13.2348 80.3212 12.9294C80.3212 12.624 80.4237 12.3313 80.6031 12.064C80.7824 11.7968 81.0642 11.5805 81.4486 11.4023C81.8201 11.2369 82.1788 11.1605 82.499 11.1732C82.8321 11.1987 83.1267 11.3005 83.3701 11.4914C83.6135 11.6823 83.8313 11.9368 83.985 12.2549C84.1259 12.5603 84.2028 12.853 84.19 13.1203C84.19 13.3875 84.1131 13.6293 83.985 13.8584C83.8569 14.0747 83.6904 14.2656 83.4726 14.4183L83.178 13.7947C83.3445 13.6802 83.447 13.553 83.4982 13.413C83.5495 13.2603 83.5623 13.1203 83.5495 12.9676C83.5367 12.8149 83.4854 12.6749 83.4214 12.5349C83.2548 12.1913 83.0242 11.9622 82.7424 11.8732C82.4606 11.7841 82.1275 11.8223 81.7688 11.9877C81.3845 12.1658 81.1411 12.3949 81.013 12.6749C80.8977 12.9548 80.9233 13.273 81.0899 13.6166C81.1539 13.7566 81.2436 13.8966 81.3589 14.0111C81.4742 14.1256 81.6023 14.2147 81.756 14.2529C81.9097 14.2911 82.0763 14.3038 82.2684 14.2529L82.5631 14.8764C82.3069 14.9401 82.0378 14.9655 81.7816 14.9273C81.5254 14.8892 81.2948 14.7874 81.0771 14.6219C80.8593 14.4565 80.6799 14.2147 80.5262 13.8966V13.8584Z" fill="#7169B0"/>
<path d="M81.7432 16.8872L82.3069 16.7854L82.7808 19.216L82.2172 19.3178L81.7432 16.8872ZM81.7816 16.8745L85.3685 16.1746L85.4966 16.8236L81.9097 17.5108L81.7816 16.8618V16.8745Z" fill="#7169B0"/>
<path d="M82.3325 20.7176L86.0219 20.8448L85.9322 23.4663L85.3557 23.4409L85.4198 21.4811L84.4462 21.4429L84.3949 22.9446H83.8441L83.8953 21.4175L82.8449 21.3793L82.768 23.4027H82.23L82.3197 20.7048L82.3325 20.7176Z" fill="#7169B0"/>
<path d="M9.79996 69.3301H11.4909C12.3492 69.3301 13.0026 69.012 13.4509 68.363C13.8993 67.714 14.1171 66.7595 14.1171 65.487V44.4385C14.1171 43.115 13.9377 42.1479 13.579 41.537C13.2203 40.9389 12.6311 40.6335 11.7984 40.6335H10.0177V39.5264H16.6023L29.8226 62.9673H30.0404L43.3504 39.5264H49.8965V40.6335H48.0775C47.2448 40.6335 46.6555 40.9389 46.2968 41.537C45.9381 42.1479 45.7588 43.1023 45.7588 44.4385V65.576C45.7588 66.8995 45.9381 67.8667 46.2968 68.4775C46.6555 69.0756 47.2448 69.381 48.0775 69.381H49.8965V70.4882H38.8155V69.381H40.814C41.7363 69.381 42.3896 69.0756 42.7739 68.4775C43.1583 67.8794 43.3504 66.9122 43.3504 65.576V42.6187H43.1326L29.9507 65.7924H28.7978L15.6671 42.6187H15.4494V65.4361C15.4494 66.7341 15.7696 67.7012 16.4101 68.3503C17.0507 68.9993 17.9602 69.3174 19.1516 69.3174H21.4702V70.4627H9.79996V69.3174V69.3301Z" fill="#7169B0"/>
<path d="M54.0215 69.4192C52.8173 68.4139 52.2152 67.0777 52.2152 65.3979C52.2152 63.8072 52.8173 62.5219 54.0215 61.5547C55.2257 60.5875 57.1472 59.8113 59.7862 59.2513L68.4716 57.3934V58.7168L60.2345 60.4476C58.1592 60.893 56.6732 61.4656 55.7765 62.191C54.8798 62.9164 54.4442 63.909 54.4442 65.1815C54.4442 66.4541 54.8798 67.434 55.7637 68.1466C56.6348 68.8593 57.903 69.2029 59.5684 69.2029C61.1056 69.2029 62.4892 68.8975 63.7061 68.2994C64.9231 67.7012 65.8583 66.8232 66.5116 65.6906C67.1649 64.558 67.4852 63.26 67.4852 61.8219V55.8026C67.4852 53.652 66.9472 52.0104 65.8583 50.865C64.7694 49.7324 63.1681 49.1598 61.0288 49.1598C59.5812 49.1598 58.4539 49.4143 57.6724 49.9361C56.891 50.4578 56.4939 51.2086 56.4939 52.214C56.4939 52.7485 56.6092 53.2066 56.8526 53.6011C57.096 53.9956 57.4803 54.3137 58.0055 54.5555C57.8518 55.09 57.5571 55.5227 57.1216 55.879C56.6732 56.2353 56.1736 56.4135 55.61 56.4135C54.8926 56.4135 54.3161 56.159 53.8677 55.6627C53.4194 55.1664 53.2016 54.5173 53.2016 53.7156C53.2016 52.5957 53.5987 51.5904 54.4058 50.6869C55.2 49.7834 56.3017 49.0834 57.6981 48.5617C59.0944 48.0399 60.6188 47.7854 62.2842 47.7854C64.6541 47.7854 66.486 48.4599 67.7798 49.7961C69.0737 51.1323 69.7142 53.0284 69.7142 55.4845V65.7924C69.7142 66.7595 69.7783 67.4976 69.8936 68.0067C70.0089 68.503 70.201 68.872 70.4444 69.0884C70.7006 69.3047 71.0721 69.4192 71.5845 69.4192H73.0577V70.4755H68.0232L67.5365 66.4541H67.3187C66.4219 67.8667 65.2434 68.9611 63.783 69.7501C62.3098 70.5264 60.6829 70.9209 58.9022 70.9209C56.8526 70.9209 55.2257 70.4246 54.0215 69.4192Z" fill="#7169B0"/>
<path d="M73.7623 69.4192H75.1843C75.6839 69.4192 76.081 69.3047 76.3372 69.0884C76.6062 68.872 76.7856 68.503 76.8881 68.0067C76.9905 67.5104 77.0418 66.7723 77.0418 65.7924V51.7686C77.0418 50.9159 76.8496 50.3306 76.4909 50.0251C76.1194 49.7197 75.402 49.5543 74.326 49.5543H73.3011V48.5362L78.5534 47.7854H79.1811V52.0358H79.3989C80.4109 50.5978 81.5382 49.5288 82.7808 48.8289C84.0235 48.1417 85.407 47.7854 86.9186 47.7854C89.1476 47.7854 90.8898 48.5108 92.1452 49.9742C93.4007 51.4377 94.0412 53.4484 94.0412 56.0063V65.7797C94.0412 66.7468 94.1052 67.4849 94.2205 67.9939C94.3358 68.4902 94.528 68.8593 94.7714 69.0756C95.0276 69.292 95.3991 69.4065 95.9115 69.4065H97.3847V70.4627H88.5199V69.4065H89.9419C90.4415 69.4065 90.8386 69.292 91.0948 69.0756C91.3638 68.8593 91.5432 68.4902 91.6456 67.9939C91.7481 67.4976 91.7994 66.7595 91.7994 65.7797V56.3117C91.7994 54.2246 91.2869 52.583 90.2621 51.3995C89.2373 50.216 87.8025 49.6306 85.9706 49.6306C83.9466 49.6306 82.3325 50.3051 81.0899 51.6668C79.8601 53.0284 79.2452 54.8228 79.2452 57.0625V65.7797C79.2452 66.7468 79.3092 67.4849 79.4245 67.9939C79.5398 68.4902 79.732 68.8593 79.9754 69.0756C80.2188 69.292 80.6031 69.4065 81.1155 69.4065H82.5374V70.4627H73.7239V69.4065L73.7623 69.4192Z" fill="#7169B0"/>
<path d="M100.639 78.8362C100.062 78.3653 99.7674 77.7545 99.7674 77.0291C99.7674 76.4055 99.9852 75.8838 100.408 75.4638C100.831 75.0311 101.407 74.7766 102.125 74.6875C102.445 75.2729 102.829 75.7438 103.265 76.0747C103.7 76.4183 104.136 76.5837 104.584 76.5837C105.122 76.5837 105.596 76.3419 106.006 75.871C106.416 75.4002 106.839 74.6621 107.249 73.6568L109.17 68.9228L108.632 71.4934L99.7674 52.6465C99.2038 51.4375 98.717 50.5976 98.3199 50.1268C97.9227 49.6559 97.5128 49.4142 97.0901 49.4142H96.3343V48.3579H105.993V49.4142H103.726C102.752 49.4142 102.163 49.7832 101.984 50.5467C101.804 51.3103 102.035 52.3538 102.65 53.7027L109.286 67.9938H109.503L115.153 53.7536C115.716 52.3411 115.883 51.2594 115.64 50.5213C115.396 49.7832 114.768 49.4142 113.731 49.4142H111.233V48.3579H119.957V49.4142H119.329C118.945 49.4142 118.548 49.6814 118.15 50.2031C117.753 50.7249 117.305 51.5775 116.831 52.7229L108.466 73.7331C107.659 75.7692 106.813 77.2454 105.904 78.1617C104.994 79.0779 103.956 79.5361 102.765 79.5361C101.907 79.5361 101.189 79.2943 100.6 78.8234L100.639 78.8362Z" fill="#7169B0"/>
<path d="M13.6943 144.832H15.475C16.3076 144.832 16.8969 144.527 17.2556 143.929C17.6143 143.331 17.7937 142.363 17.7937 141.027V119.89C17.7937 118.566 17.6143 117.599 17.2556 116.988C16.8969 116.39 16.3076 116.085 15.475 116.085H13.6943V114.978H27.4015C31.1165 114.978 34.3191 115.601 37.0349 116.836C39.7507 118.07 41.8388 119.864 43.2864 122.193C44.7339 124.522 45.4641 127.283 45.4641 130.465C45.4641 133.646 44.7724 136.408 43.3888 138.737C42.0053 141.065 40.0197 142.847 37.4192 144.094C34.8187 145.329 31.7314 145.952 28.1316 145.952H13.6687V144.845L13.6943 144.832ZM38.9693 141.116C41.4801 138.787 42.7355 135.402 42.7355 130.948C42.7355 127.856 42.095 125.209 40.8268 123.033C39.5585 120.857 37.6754 119.19 35.2158 118.032C32.7562 116.886 29.7842 116.301 26.3126 116.301C24.7113 116.301 22.6744 116.377 20.2148 116.517V144.247C22.3798 144.489 24.9675 144.603 27.9651 144.603C32.8074 144.603 36.4712 143.432 38.9821 141.104L38.9693 141.116Z" fill="#7169B0"/>
<path d="M50.4474 144.87C49.2432 143.865 48.6411 142.529 48.6411 140.849C48.6411 139.258 49.2432 137.973 50.4474 137.006C51.6516 136.038 53.5731 135.262 56.2121 134.702L64.8975 132.844V134.168L56.6604 135.898C54.5851 136.344 53.0991 136.917 52.2024 137.642C51.3057 138.367 50.8701 139.36 50.8701 140.632C50.8701 141.905 51.3057 142.885 52.1896 143.598C53.0607 144.31 54.3289 144.654 55.9943 144.654C57.5315 144.654 58.9151 144.348 60.132 143.75C61.349 143.152 62.2842 142.274 62.9375 141.142C63.5909 140.009 63.9111 138.711 63.9111 137.273V131.254C63.9111 129.103 63.3731 127.461 62.2842 126.316C61.1953 125.183 59.594 124.611 57.4547 124.611C56.0071 124.611 54.8798 124.865 54.0983 125.387C53.3169 125.909 52.9198 126.66 52.9198 127.665C52.9198 128.199 53.0351 128.658 53.2785 129.052C53.5219 129.447 53.9062 129.765 54.4314 130.006C54.2777 130.541 53.983 130.974 53.5475 131.33C53.0991 131.686 52.5995 131.864 52.0359 131.864C51.3185 131.864 50.742 131.61 50.2937 131.114C49.8453 130.617 49.6275 129.968 49.6275 129.167C49.6275 128.047 50.0246 127.041 50.8317 126.138C51.6259 125.234 52.7276 124.534 54.124 124.013C55.5203 123.491 57.0447 123.236 58.7101 123.236C61.08 123.236 62.9119 123.911 64.2058 125.247C65.4996 126.583 66.1401 128.479 66.1401 130.935V141.243C66.1401 142.21 66.2042 142.949 66.3195 143.458C66.4348 143.954 66.6269 144.323 66.8703 144.539C67.1265 144.756 67.498 144.87 68.0104 144.87H69.4836V145.926H64.4492L63.9624 141.905H63.7446C62.8478 143.318 61.6693 144.412 60.2089 145.201C58.7357 145.977 57.1088 146.372 55.3281 146.372C53.2785 146.372 51.6516 145.875 50.4474 144.87Z" fill="#7169B0"/>
<path d="M72.7119 154.287C72.1354 153.816 71.8408 153.206 71.8408 152.48C71.8408 151.857 72.0585 151.335 72.4813 150.915C72.904 150.482 73.4805 150.228 74.1979 150.139C74.5181 150.724 74.9024 151.195 75.338 151.526C75.7736 151.869 76.2091 152.035 76.6575 152.035C77.1955 152.035 77.6695 151.793 78.0794 151.322C78.4894 150.851 78.9121 150.113 79.322 149.108L81.2436 144.374L80.7056 146.945L71.8408 128.098C71.2771 126.889 70.7903 126.049 70.3932 125.578C69.9961 125.107 69.5861 124.865 69.1634 124.865H68.4076V123.809H78.0666V124.865H75.7992C74.8256 124.865 74.2363 125.234 74.057 125.998C73.8776 126.761 74.1082 127.805 74.7231 129.154L81.3589 143.445H81.5767L87.226 129.205C87.7897 127.792 87.9562 126.711 87.7129 125.972C87.4695 125.234 86.8417 124.865 85.8041 124.865H83.3061V123.809H92.03V124.865H91.4022C91.0179 124.865 90.6208 125.133 90.2237 125.654C89.8266 126.176 89.3782 127.029 88.9042 128.174L80.539 149.184C79.732 151.22 78.8865 152.697 77.9769 153.613C77.0674 154.529 76.0298 154.987 74.8384 154.987C73.9801 154.987 73.2627 154.745 72.6734 154.275L72.7119 154.287Z" fill="#7169B0"/>
<path d="M99.0885 146.27C98.2302 146.105 97.3078 145.863 96.3214 145.545C96.0268 145.456 95.7322 145.379 95.4503 145.303C95.1685 145.227 94.9251 145.189 94.7201 145.189C94.5152 145.189 94.3486 145.239 94.2333 145.316C94.1181 145.405 94.054 145.583 94.054 145.85H93.1188L92.9011 137.846H93.8362C93.8362 139.284 94.1821 140.569 94.8611 141.689C95.54 142.809 96.5136 143.674 97.7818 144.272C99.0373 144.883 100.523 145.176 102.214 145.176C104.11 145.176 105.596 144.769 106.672 143.941C107.748 143.114 108.274 141.982 108.274 140.531C108.274 139.564 108.043 138.749 107.582 138.1C107.121 137.451 106.403 136.904 105.417 136.459C104.43 136.013 103.162 135.67 101.587 135.402C99.6906 135.084 98.1405 134.652 96.9363 134.117C95.7322 133.583 94.8482 132.921 94.2846 132.106C93.7209 131.292 93.4391 130.312 93.4391 129.167C93.4391 127.309 94.1309 125.858 95.5272 124.815C96.9235 123.771 98.8451 123.249 101.317 123.249C102.355 123.249 103.277 123.338 104.085 123.517C104.879 123.695 105.686 123.911 106.493 124.178C107.121 124.382 107.531 124.484 107.736 124.484C107.94 124.484 108.107 124.445 108.222 124.356C108.338 124.267 108.402 124.102 108.402 123.873H109.286L109.465 130.999H108.491C108.491 129.701 108.184 128.569 107.582 127.614C106.98 126.66 106.134 125.909 105.071 125.387C104.008 124.853 102.739 124.585 101.292 124.585C99.5753 124.585 98.2046 124.967 97.1926 125.718C96.1805 126.469 95.6809 127.474 95.6809 128.747C95.6809 130.019 96.1805 131.012 97.1926 131.75C98.2046 132.488 99.8443 133.035 102.137 133.392C105.071 133.863 107.197 134.626 108.504 135.695C109.811 136.751 110.464 138.228 110.464 140.111C110.464 141.994 109.734 143.649 108.261 144.794C106.788 145.939 104.815 146.525 102.317 146.525C101.036 146.525 99.9724 146.448 99.1141 146.283L99.0885 146.27Z" fill="#7169B0"/>
<path d="M0 107.1H1.78065C2.61332 107.1 3.2026 106.795 3.56129 106.197C3.91998 105.599 4.09933 104.631 4.09933 103.295V82.1578C4.09933 80.8343 3.91998 79.8671 3.56129 79.2563C3.2026 78.6582 2.61332 78.3527 1.78065 78.3527H0V77.2456H10.6839V78.3527H8.81356C7.98088 78.3527 7.3916 78.6582 7.03291 79.2563C6.67422 79.8671 6.49488 80.8215 6.49488 82.1578V103.295C6.49488 104.619 6.67422 105.586 7.03291 106.197C7.3916 106.795 7.98088 107.1 8.81356 107.1H10.6839V108.207H0V107.1ZM5.52128 91.4476H26.5816V92.7711H5.52128V91.4476ZM21.4574 107.1H23.2381C24.0708 107.1 24.66 106.795 25.0187 106.197C25.3774 105.599 25.5568 104.631 25.5568 103.295V82.1578C25.5568 80.8343 25.3774 79.8671 25.0187 79.2563C24.66 78.6582 24.0708 78.3527 23.2381 78.3527H21.4574V77.2456H32.1413V78.3527H30.271C29.4383 78.3527 28.849 78.6582 28.4903 79.2563C28.1317 79.8671 27.9523 80.8215 27.9523 82.1578V103.295C27.9523 104.619 28.1317 105.586 28.4903 106.197C28.849 106.795 29.4383 107.1 30.271 107.1H32.1413V108.207H21.4574V107.1Z" fill="#7169B0"/>
<path d="M36.2663 107.138C35.0621 106.133 34.46 104.797 34.46 103.117C34.46 101.526 35.0621 100.241 36.2663 99.2737C37.4704 98.3065 39.392 97.5302 42.0309 96.9703L50.7164 95.1124V96.4358L42.4793 98.1665C40.404 98.6119 38.918 99.1846 38.0213 99.91C37.1246 100.635 36.689 101.628 36.689 102.901C36.689 104.173 37.1246 105.153 38.0085 105.866C38.8796 106.578 40.1478 106.922 41.8132 106.922C43.3504 106.922 44.7339 106.616 45.9509 106.018C47.1679 105.42 48.1031 104.542 48.7564 103.41C49.4097 102.277 49.73 100.979 49.73 99.5409V93.5216C49.73 91.371 49.192 89.7294 48.1031 88.584C47.0142 87.4514 45.4129 86.8788 43.2735 86.8788C41.826 86.8788 40.6987 87.1333 39.9172 87.655C39.1358 88.1768 38.7387 88.9276 38.7387 89.933C38.7387 90.4674 38.854 90.9256 39.0974 91.3201C39.3408 91.7146 39.7251 92.0327 40.2503 92.2745C40.0966 92.809 39.8019 93.2417 39.3664 93.598C38.918 93.9543 38.4184 94.1325 37.8547 94.1325C37.1374 94.1325 36.5609 93.878 36.1125 93.3816C35.6642 92.8853 35.4464 92.2363 35.4464 91.4346C35.4464 90.3147 35.8435 89.3094 36.6506 88.4059C37.4448 87.5023 38.5465 86.8024 39.9428 86.2807C41.3392 85.7589 42.8636 85.5044 44.529 85.5044C46.8989 85.5044 48.7308 86.1789 50.0246 87.5151C51.3185 88.8513 51.959 90.7474 51.959 93.2035V103.511C51.959 104.479 52.0231 105.217 52.1384 105.726C52.2536 106.222 52.4458 106.591 52.6892 106.807C52.9454 107.024 53.3169 107.138 53.8293 107.138H55.3025V108.194H50.268L49.7812 104.173H49.5635C48.6667 105.586 47.4882 106.68 46.0278 107.469C44.5546 108.245 42.9277 108.64 41.147 108.64C39.0974 108.64 37.4704 108.144 36.2663 107.138Z" fill="#7169B0"/>
<path d="M55.7765 115.983H57.1985C57.6981 115.983 58.0952 115.868 58.3514 115.652C58.6204 115.435 58.7998 115.066 58.9022 114.57C59.0047 114.074 59.056 113.336 59.056 112.356V89.4876C59.056 88.6349 58.8638 88.0495 58.5051 87.7441C58.1336 87.4387 57.4162 87.2733 56.3402 87.2733H55.3153V86.2552L60.6573 85.5044H61.285V90.4165H61.5028C62.566 88.7622 63.8214 87.5405 65.2434 86.7261C66.6654 85.9116 68.2667 85.5044 70.0473 85.5044C72.0073 85.5044 73.7367 85.9625 75.2611 86.8788C76.7728 87.795 77.9385 89.0931 78.7584 90.7729C79.5782 92.4527 79.9882 94.387 79.9882 96.5631C79.9882 98.8665 79.5398 100.89 78.6559 102.646C77.7592 104.402 76.5166 105.764 74.8896 106.731C73.2627 107.698 71.4052 108.194 69.3043 108.194C67.7927 108.194 66.3835 107.978 65.0769 107.558C63.7702 107.138 62.5148 106.476 61.2978 105.586V112.356C61.2978 113.297 61.3747 114.023 61.5412 114.545C61.7077 115.066 61.9896 115.423 62.3867 115.652C62.7838 115.881 63.3475 115.983 64.052 115.983H66.281V117.039H55.7765V115.983ZM73.7751 105.687C74.9921 104.924 75.9273 103.817 76.5806 102.391C77.2339 100.966 77.5542 99.2864 77.5542 97.3775C77.5542 94.247 76.824 91.8291 75.3508 90.0984C73.8776 88.3677 71.8408 87.5151 69.2274 87.5151C66.7935 87.5151 64.8591 88.2659 63.4371 89.7675C62.0152 91.2692 61.2978 93.3053 61.2978 95.8759V101.755C61.7462 103.257 62.7197 104.479 64.2314 105.42C65.743 106.362 67.4852 106.833 69.4452 106.833C71.1106 106.833 72.5453 106.451 73.7623 105.687H73.7751Z" fill="#7169B0"/>
<path d="M81.7432 115.983H83.1651C83.6648 115.983 84.0619 115.868 84.3181 115.652C84.5871 115.435 84.7664 115.066 84.8689 114.57C84.9714 114.074 85.0227 113.336 85.0227 112.356V89.4876C85.0227 88.6349 84.8305 88.0495 84.4718 87.7441C84.1003 87.4387 83.3829 87.2733 82.3069 87.2733H81.282V86.2552L86.624 85.5044H87.2517V90.4165H87.4694C88.5327 88.7622 89.7881 87.5405 91.2101 86.7261C92.632 85.9116 94.2333 85.5044 96.014 85.5044C97.974 85.5044 99.7034 85.9625 101.228 86.8788C102.739 87.795 103.905 89.0931 104.725 90.7729C105.545 92.4527 105.955 94.387 105.955 96.5631C105.955 98.8665 105.506 100.89 104.623 102.646C103.726 104.402 102.483 105.764 100.856 106.731C99.2294 107.698 97.3719 108.194 95.271 108.194C93.7594 108.194 92.3502 107.978 91.0435 107.558C89.7369 107.138 88.4815 106.476 87.2645 105.586V112.356C87.2645 113.297 87.3413 114.023 87.5079 114.545C87.6744 115.066 87.9562 115.423 88.3534 115.652C88.7505 115.881 89.3141 115.983 90.0187 115.983H92.2477V117.039H81.7432V115.983ZM99.729 105.687C100.946 104.924 101.881 103.817 102.534 102.391C103.188 100.966 103.508 99.2864 103.508 97.3775C103.508 94.247 102.778 91.8291 101.305 90.0984C99.8315 88.3677 97.7946 87.5151 95.1813 87.5151C92.7473 87.5151 90.813 88.2659 89.391 89.7675C87.969 91.2692 87.2517 93.3053 87.2517 95.8759V101.755C87.7 103.257 88.6736 104.479 90.1853 105.42C91.6969 106.362 93.4391 106.833 95.3991 106.833C97.0644 106.833 98.4992 106.451 99.7162 105.687H99.729Z" fill="#7169B0"/>
<path d="M110.656 116.568C110.08 116.097 109.785 115.486 109.785 114.761C109.785 114.137 110.003 113.616 110.426 113.196C110.848 112.763 111.425 112.509 112.142 112.419C112.463 113.005 112.847 113.476 113.282 113.807C113.718 114.15 114.154 114.316 114.602 114.316C115.14 114.316 115.614 114.074 116.024 113.603C116.434 113.132 116.857 112.394 117.266 111.389L119.188 106.655L118.65 109.225L109.785 90.3784C109.222 89.1695 108.735 88.3296 108.338 87.8587C107.94 87.3879 107.531 87.1461 107.108 87.1461H106.352V86.0898H116.011V87.1461H113.744C112.77 87.1461 112.181 87.5151 112.001 88.2787C111.822 89.0422 112.053 90.0857 112.668 91.4347L119.303 105.726H119.521L125.17 91.4856C125.734 90.073 125.901 88.9913 125.657 88.2532C125.414 87.5151 124.786 87.1461 123.749 87.1461H121.25V86.0898H129.974V87.1461H129.347C128.962 87.1461 128.565 87.4133 128.168 87.9351C127.771 88.4568 127.323 89.3095 126.849 90.4548L118.483 111.465C117.676 113.501 116.831 114.977 115.921 115.894C115.012 116.81 113.974 117.268 112.783 117.268C111.925 117.268 111.207 117.026 110.618 116.555L110.656 116.568Z" fill="#7169B0"/>
</g>
<defs>
<clipPath id="clip0_1_195">
<rect width="130" height="155" fill="white"/>
</clipPath>
</defs>
</svg>
