<svg width="113" height="94" viewBox="0 0 113 94" fill="none" xmlns="http://www.w3.org/2000/svg">
<g clip-path="url(#clip0_1_180)">
<path d="M61.6996 64.5265C61.6805 65.2856 61.6996 65.7032 61.6996 65.7032L61.7377 65.6462C62.49 81.4078 73.6128 93.924 87.2307 93.9905C101.372 94.0664 113 80.5063 113 63.9287C113 47.3226 101.515 33.8669 87.345 33.8669C84.0501 33.8669 80.8979 34.5976 78.003 35.926C82.7454 20.9236 94.8301 9.12855 100.487 4.23212C101.753 3.14087 101.496 0.844481 100.039 0.161258C99.4869 -0.09495 98.8583 -0.0569932 98.3346 0.275129C70.9845 17.925 64.0327 44.2955 62.2805 57.5235C61.8995 59.5826 61.6996 61.7272 61.6996 63.9287C61.6996 64.128 61.6996 64.3272 61.6996 64.5265Z" fill="#DCB4CF"/>
<path d="M0.00952301 64.5263C-0.00952301 65.2854 0.00952301 65.7029 0.00952301 65.7029L0.047615 65.646C0.799933 81.4075 11.9228 93.9238 25.5407 93.9902C39.6824 94.0661 51.31 80.5061 51.31 63.9284C51.31 47.3223 39.8252 33.8666 25.655 33.8666C22.36 33.8666 19.2079 34.5973 16.3129 35.9258C21.0554 20.9234 33.1401 9.12831 38.7967 4.23188C40.0633 3.14062 39.8062 0.844237 38.3492 0.161014C37.7968 -0.0951941 37.1683 -0.0572373 36.6445 0.274885C9.30398 17.9438 2.34266 44.3143 0.590426 57.5327C0.209506 59.5919 0 61.7364 0 63.9379C0 64.1372 0 64.3365 0 64.5357L0.00952301 64.5263Z" fill="#DCB4CF"/>
</g>
<defs>
<clipPath id="clip0_1_180">
<rect width="113" height="94" fill="white"/>
</clipPath>
</defs>
</svg>
