<svg width="66" height="56" viewBox="0 0 66 56" fill="none" xmlns="http://www.w3.org/2000/svg">
<g clip-path="url(#clip0_1_300)">
<path d="M0.630005 0.630005V13.58C0.630005 16.7 2.69 19.41 5.32 20.73C5.65 20.9 5.86 21.24 5.85 21.61L5.25 51.2C5.25 53.07 6.77001 54.59 8.64001 54.59C10.51 54.59 12.03 53.07 12.03 51.2L11.43 21.61C11.43 21.24 11.63 20.9 11.96 20.73C14.6 19.41 16.65 16.7 16.65 13.58V0.630005" stroke="#7169B0" stroke-width="1.26" stroke-linecap="round" stroke-linejoin="round"/>
<path d="M5.70001 0.630005V16" stroke="#7169B0" stroke-width="1.26" stroke-linecap="round" stroke-linejoin="round"/>
<path d="M11.25 0.630005V16" stroke="#7169B0" stroke-width="1.26" stroke-linecap="round" stroke-linejoin="round"/>
<path d="M59.28 32.4L57.97 51.24C57.97 53.13 59.52 54.66 61.42 54.63C63.29 54.6 64.75 53 64.75 51.13V0.650024C64.62 0.650024 64.5 0.650024 64.37 0.660024C60.76 0.890024 58.72 4.70002 58.25 9.50002L55.72 30.81C55.62 31.65 56.27 32.39 57.12 32.39H59.27L59.28 32.4Z" stroke="#7169B0" stroke-width="1.26" stroke-linecap="round" stroke-linejoin="round"/>
<path d="M34.47 44.4V31.75C34.46 28.95 35.35 26.19 37.1 24.01C41.06 19.07 46.69 18.17 46.69 18.17" stroke="#7169B0" stroke-width="1.26" stroke-linecap="round" stroke-linejoin="round"/>
<path d="M30.36 20.34C34.16 23.25 34.34 29.4 34.34 29.4C34.34 29.4 28.35 30.84 24.55 27.94C20.75 25.03 20.57 18.88 20.57 18.88C20.57 18.88 26.56 17.44 30.36 20.34Z" stroke="#7169B0" stroke-width="1.26" stroke-linecap="round" stroke-linejoin="round"/>
<path d="M35.5 20.05C36.25 18.54 37.3 17.07 38.77 16C43.44 12.62 51.8 14.85 51.8 14.85C51.8 14.85 51.39 22.25 46.72 25.63C43.04 28.29 37.82 27.66 35.77 27.27" stroke="#7169B0" stroke-width="1.26" stroke-linecap="round" stroke-linejoin="round"/>
<path d="M55.51 10.72C50.59 4.57 43.03 0.630005 34.54 0.630005C28.98 0.630005 23.82 2.32 19.54 5.21" stroke="#7169B0" stroke-width="1.26" stroke-linecap="round" stroke-linejoin="round"/>
<path d="M13.67 44.3C18.59 50.38 26.11 54.28 34.54 54.28C42.97 54.28 50.91 50.17 55.81 43.79" stroke="#7169B0" stroke-width="1.26" stroke-linecap="round" stroke-linejoin="round"/>
<path d="M34.54 6.18005C28.69 6.18005 23.39 8.54005 19.54 12.3701" stroke="#7169B0" stroke-width="1.26" stroke-linecap="round" stroke-linejoin="round"/>
<path d="M15.44 36.8199C18.9 43.8699 26.16 48.7299 34.55 48.7299C42.42 48.7299 49.28 44.4599 52.97 38.1099" stroke="#7169B0" stroke-width="1.26" stroke-linecap="round" stroke-linejoin="round"/>
</g>
<defs>
<clipPath id="clip0_1_300">
<rect width="65.39" height="55.26" fill="white"/>
</clipPath>
</defs>
</svg>
