<svg width="52" height="56" viewBox="0 0 52 56" fill="none" xmlns="http://www.w3.org/2000/svg">
<g clip-path="url(#clip0_1_268)">
<path d="M39.03 25.28C42.22 22.09 42.22 16.92 39.03 13.73C35.84 10.54 30.67 10.54 27.48 13.73L25.76 15.45C25.76 15.45 25.66 15.49 25.62 15.45L23.9 13.73C20.71 10.54 15.54 10.54 12.35 13.73C9.15999 16.92 9.15999 22.09 12.35 25.28L25.46 38.39C25.59 38.52 25.79 38.52 25.92 38.39L39.03 25.28Z" stroke="#7169B0" stroke-width="1.26" stroke-linecap="round" stroke-linejoin="round"/>
<path d="M44.48 0.630005H6.9C3.44 0.630005 0.630005 3.44 0.630005 6.9V40.84C0.630005 44.31 3.44 47.11 6.9 47.11H17.76C17.76 47.11 17.82 47.12 17.84 47.14L25.55 54.56C25.63 54.64 25.75 54.64 25.83 54.56L33.54 47.14C33.54 47.14 33.59 47.11 33.62 47.11H44.48C47.95 47.11 50.76 44.3 50.76 40.83V6.9C50.76 3.43 47.95 0.630005 44.49 0.630005H44.48Z" stroke="#7169B0" stroke-width="1.26" stroke-linecap="round" stroke-linejoin="round"/>
</g>
<defs>
<clipPath id="clip0_1_268">
<rect width="51.39" height="55.26" fill="white"/>
</clipPath>
</defs>
</svg>
