<svg width="56" height="55" viewBox="0 0 56 55" fill="none" xmlns="http://www.w3.org/2000/svg">
<g clip-path="url(#clip0_1_277)">
<path d="M6.91 29.43V53.46C6.91 53.86 7.23 54.18 7.63 54.18H47.62C48.02 54.18 48.34 53.86 48.34 53.46V29.55C52.12 27.82 54.62 23.72 54.62 19.17C54.62 12.98 50.05 7.94 44.44 7.94C42.87 7.94 41.33 8.34 39.94 9.09C38.93 6.74001 37.36 4.73001 35.37 3.24001C33.09 1.53 30.41 0.630005 27.63 0.630005C22.32 0.630005 17.58 3.9 15.34 9.03C13.98 8.36 12.5 8.01 11 8.01C5.28 8.01 0.630005 13.02 0.630005 19.17C0.630005 23.62 3.13 27.68 6.91 29.43Z" stroke="#7169B0" stroke-width="1.26" stroke-linecap="round" stroke-linejoin="round"/>
<path d="M6.91 45.62H48.35" stroke="#7169B0" stroke-width="1.26" stroke-linecap="round" stroke-linejoin="round"/>
<path d="M27.63 21.85V29.14" stroke="#7169B0" stroke-width="1.26" stroke-linecap="round" stroke-linejoin="round"/>
<path d="M18.4 29.14L16.44 22.34" stroke="#7169B0" stroke-width="1.26" stroke-linecap="round" stroke-linejoin="round"/>
<path d="M36.86 29.14L38.81 22.34" stroke="#7169B0" stroke-width="1.26" stroke-linecap="round" stroke-linejoin="round"/>
<path d="M11.82 29.14H43.43" stroke="#7169B0" stroke-width="1.26" stroke-linecap="round" stroke-linejoin="round"/>
</g>
<defs>
<clipPath id="clip0_1_277">
<rect width="55.26" height="54.81" fill="white"/>
</clipPath>
</defs>
</svg>
