<svg width="51" height="56" viewBox="0 0 51 56" fill="none" xmlns="http://www.w3.org/2000/svg">
<g clip-path="url(#clip0_1_271)">
<path d="M21.78 13.84H7.34C3.64 13.84 0.630005 16.84 0.630005 20.55V27.26C0.630005 30.96 3.63 33.97 7.34 33.97H21.78L40.17 46.86C41.34 47.68 42.94 46.84 42.94 45.42V2.38998C42.94 0.969982 41.34 0.129982 40.17 0.949982L21.78 13.84Z" stroke="#7169B0" stroke-width="1.26" stroke-linecap="round" stroke-linejoin="round"/>
<path d="M18.07 48.47V38.6" stroke="#7169B0" stroke-width="1.26" stroke-linecap="round" stroke-linejoin="round"/>
<path d="M8.42999 38.6V51.5C8.42999 53.23 9.82999 54.63 11.56 54.63H18.03C19.73 54.63 21.11 53.25 21.11 51.55C21.11 49.85 19.73 48.47 18.03 48.47H14.8" stroke="#7169B0" stroke-width="1.26" stroke-linecap="round" stroke-linejoin="round"/>
<path d="M21.78 13.84V33.68" stroke="#7169B0" stroke-width="1.26" stroke-linecap="round" stroke-linejoin="round"/>
<path d="M43.34 17.55C46.77 17.55 49.55 20.33 49.55 23.76C49.55 27.19 46.77 29.97 43.34 29.97" stroke="#7169B0" stroke-width="1.26" stroke-linecap="round" stroke-linejoin="round"/>
</g>
<defs>
<clipPath id="clip0_1_271">
<rect width="50.18" height="55.26" fill="white"/>
</clipPath>
</defs>
</svg>
