<svg width="56" height="58" viewBox="0 0 56 58" fill="none" xmlns="http://www.w3.org/2000/svg">
<g clip-path="url(#clip0_1_259)">
<path d="M27.28 18.7C26.03 17.05 25.96 14.74 27.18 13.01C28.99 10.44 30.39 7.44998 29.01 5.41998C27.99 3.91998 26.16 3.31998 24.42 3.44998C11.14 4.38998 0.630005 15.96 0.630005 30.09C0.630005 44.22 12.07 56.8 26.19 56.8C34.6 56.8 42.32 52.87 46.72 46C47.49 44.8 49.5 41.19 50.06 36.98C50.84 31.14 49.21 25.27 45.27 21.04" stroke="#7169B0" stroke-width="1.26" stroke-linecap="round" stroke-linejoin="round"/>
<path d="M12.11 42.94C13.8441 42.94 15.25 41.5342 15.25 39.8C15.25 38.0659 13.8441 36.66 12.11 36.66C10.3758 36.66 8.96997 38.0659 8.96997 39.8C8.96997 41.5342 10.3758 42.94 12.11 42.94Z" stroke="#7169B0" stroke-width="1.26" stroke-linecap="round" stroke-linejoin="round"/>
<path d="M10.04 26.7299C11.7742 26.7299 13.18 25.3241 13.18 23.59C13.18 21.8558 11.7742 20.45 10.04 20.45C8.30585 20.45 6.90002 21.8558 6.90002 23.59C6.90002 25.3241 8.30585 26.7299 10.04 26.7299Z" stroke="#7169B0" stroke-width="1.26" stroke-linecap="round" stroke-linejoin="round"/>
<path d="M24.32 51.65C26.0542 51.65 27.46 50.2442 27.46 48.51C27.46 46.7758 26.0542 45.37 24.32 45.37C22.5858 45.37 21.18 46.7758 21.18 48.51C21.18 50.2442 22.5858 51.65 24.32 51.65Z" stroke="#7169B0" stroke-width="1.26" stroke-linecap="round" stroke-linejoin="round"/>
<path d="M39.1 46.15C40.8342 46.15 42.24 44.7442 42.24 43.01C42.24 41.2758 40.8342 39.87 39.1 39.87C37.3658 39.87 35.96 41.2758 35.96 43.01C35.96 44.7442 37.3658 46.15 39.1 46.15Z" stroke="#7169B0" stroke-width="1.26" stroke-linecap="round" stroke-linejoin="round"/>
<path d="M31.98 27.35C30.64 25.97 29.3 24.6 27.96 23.22C33.73 16.53 42.44 7.74997 49.91 1.30997C51.04 0.34997 52.78 0.429971 53.82 1.45997C54.85 2.48997 54.93 4.23997 53.97 5.36997C47.52 12.84 38.51 21.44 31.99 27.36L31.98 27.35Z" stroke="#7169B0" stroke-width="1.26" stroke-linecap="round" stroke-linejoin="round"/>
<path d="M27.77 23.24C23.91 22.97 21.64 25.12 20.8 28.84C20.15 31.7 18.96 34.1 17.47 35.22C19.75 35.61 21.61 35.91 23.66 35.82C28.73 35.59 32.27 33.41 31.98 27.35" stroke="#7169B0" stroke-width="1.26" stroke-linecap="round" stroke-linejoin="round"/>
<path d="M35.03 16.67L39.09 20.73" stroke="#7169B0" stroke-width="1.26" stroke-linecap="round" stroke-linejoin="round"/>
</g>
<defs>
<clipPath id="clip0_1_259">
<rect width="55.26" height="57.43" fill="white"/>
</clipPath>
</defs>
</svg>
