<svg width="56" height="56" viewBox="0 0 56 56" fill="none" xmlns="http://www.w3.org/2000/svg">
<g clip-path="url(#clip0_1_284)">
<path d="M53.18 19.3599L54 18.5399C54.85 17.6899 54.85 16.3099 54 15.4599L39.79 1.26995C38.94 0.419946 37.56 0.419946 36.71 1.26995L35.89 2.08995" stroke="#7169B0" stroke-width="1.26" stroke-linecap="round" stroke-linejoin="round"/>
<path d="M49.5 28.68L52.55 25.63C53.4 24.78 53.4 23.4 52.55 22.55L41.43 11.43L32.71 2.71001C31.86 1.86001 30.48 1.86001 29.63 2.71001L26.58 5.76001C25.73 6.61001 25.73 7.99001 26.58 8.84001L46.42 28.68C47.27 29.53 48.65 29.53 49.5 28.68Z" stroke="#7169B0" stroke-width="1.26" stroke-linecap="round" stroke-linejoin="round"/>
<path d="M46 3.60002C46.85 2.75002 48.23 2.75002 49.08 3.60002L51.66 6.18002C52.51 7.03002 52.51 8.41002 51.66 9.26002" stroke="#7169B0" stroke-width="1.26" stroke-linecap="round" stroke-linejoin="round"/>
<path d="M19.36 53.18L18.54 54C17.69 54.85 16.31 54.85 15.46 54L1.27 39.79C0.42 38.94 0.42 37.56 1.27 36.71L2.09 35.89" stroke="#7169B0" stroke-width="1.26" stroke-linecap="round" stroke-linejoin="round"/>
<path d="M28.68 49.5L25.63 52.55C24.78 53.4 23.4 53.4 22.55 52.55L11.94 41.94L2.71 32.71C1.86 31.86 1.86 30.48 2.71 29.63L5.76 26.58C6.61 25.73 7.99 25.73 8.84 26.58L28.68 46.42C29.53 47.27 29.53 48.65 28.68 49.5Z" stroke="#7169B0" stroke-width="1.26" stroke-linecap="round" stroke-linejoin="round"/>
<path d="M3.6 46C2.75 46.85 2.75 48.23 3.6 49.08L6.18 51.66C7.03 52.51 8.41 52.51 9.26 51.66" stroke="#7169B0" stroke-width="1.26" stroke-linecap="round" stroke-linejoin="round"/>
<path d="M16.61 34.49L34.49 16.61" stroke="#7169B0" stroke-width="1.26" stroke-linecap="round" stroke-linejoin="round"/>
<path d="M20.77 38.65L38.65 20.77" stroke="#7169B0" stroke-width="1.26" stroke-linecap="round" stroke-linejoin="round"/>
</g>
<defs>
<clipPath id="clip0_1_284">
<rect width="55.26" height="55.26" fill="white"/>
</clipPath>
</defs>
</svg>
