<svg width="56" height="56" viewBox="0 0 56 56" fill="none" xmlns="http://www.w3.org/2000/svg">
<g clip-path="url(#clip0_1_293)">
<path d="M28.99 30.68L45.87 13.8" stroke="#7169B0" stroke-width="1.26" stroke-linecap="round" stroke-linejoin="round"/>
<path d="M24.58 26.27L41.46 9.39001" stroke="#7169B0" stroke-width="1.26" stroke-linecap="round" stroke-linejoin="round"/>
<path d="M10.1 37.95L17.31 45.16" stroke="#7169B0" stroke-width="1.26" stroke-linecap="round" stroke-linejoin="round"/>
<path d="M49.02 0.780005L47.94 0.630005L42.43 6.14L41.5 9.35001L45.91 13.76L49.12 12.83L54.63 7.32L54.37 5.91C54.24 5.19 54.01 4.48 53.65 3.84C53.15 2.94 52.58 2.31 51.78 1.79C50.95 1.25 50 0.930005 49.02 0.790005V0.780005Z" stroke="#7169B0" stroke-width="1.26" stroke-linecap="round" stroke-linejoin="round"/>
<path d="M36.65 23.01C36.87 23.3 37.01 23.49 37.01 23.49C37.85 24.71 38.51 26.01 38.96 27.36C39.95 30.33 40.04 34.49 36.74 36.39C35.16 37.3 33.27 37.79 31.83 38.91C28.99 41.11 28.57 46.21 28.54 46.37C26.87 54.14 20.34 54.52 20.34 54.52C14.99 55.22 10.69 52.52 6.72001 48.54C2.74001 44.56 0.040006 40.27 0.740006 34.92C0.740006 34.92 1.12001 28.39 8.89001 26.71C9.06001 26.67 14.15 26.26 16.35 23.42C17.46 21.98 17.96 20.09 18.87 18.51C20.77 15.21 24.92 15.3 27.9 16.29C29.25 16.74 30.54 17.4 31.77 18.24C31.77 18.24 31.96 18.38 32.25 18.6" stroke="#7169B0" stroke-width="1.26" stroke-linecap="round" stroke-linejoin="round"/>
<path d="M23.07 38.3C26.4445 38.3 29.18 35.5644 29.18 32.19C29.18 28.8155 26.4445 26.08 23.07 26.08C19.6955 26.08 16.96 28.8155 16.96 32.19C16.96 35.5644 19.6955 38.3 23.07 38.3Z" stroke="#7169B0" stroke-width="1.26" stroke-linecap="round" stroke-linejoin="round"/>
</g>
<defs>
<clipPath id="clip0_1_293">
<rect width="55.26" height="55.26" fill="white"/>
</clipPath>
</defs>
</svg>
